<svg xmlns="http://www.w3.org/2000/svg" xmlns:xlink="http://www.w3.org/1999/xlink" viewBox="0 0 228.55 123.43"><defs><style>.cls-1{fill:url(#linear-gradient);}.cls-2{fill:url(#linear-gradient-2);}.cls-3{fill:url(#linear-gradient-3);}.cls-4{fill:url(#linear-gradient-4);}.cls-5{fill:#019682;}.cls-6{fill:#010101;}.cls-7{fill:url(#linear-gradient-5);}.cls-8{fill:url(#linear-gradient-6);}.cls-9{fill:url(#radial-gradient);}.cls-10{fill:url(#linear-gradient-7);}</style><linearGradient id="linear-gradient" x1="202.12" y1="90.8" x2="206.67" y2="90.8" gradientUnits="userSpaceOnUse"><stop offset="0.01" stop-color="#e9be7b"/><stop offset="0.2" stop-color="#e0b16a"/><stop offset="0.59" stop-color="#c88f3d"/><stop offset="0.73" stop-color="#be812b"/><stop offset="0.95" stop-color="#e8bc7f"/></linearGradient><linearGradient id="linear-gradient-2" x1="21.53" y1="36.28" x2="193.63" y2="36.28" xlink:href="#linear-gradient"/><linearGradient id="linear-gradient-3" x1="-2171.35" y1="943.8" x2="-2123.86" y2="984.21" gradientTransform="matrix(-0.89, 0.46, 0.46, 0.89, -2151, 196.99)" gradientUnits="userSpaceOnUse"><stop offset="0.05" stop-color="#bbd132"/><stop offset="0.1" stop-color="#98ca4e"/><stop offset="0.15" stop-color="#74c36b"/><stop offset="0.21" stop-color="#5bbd80"/><stop offset="0.25" stop-color="#4bba8d"/><stop offset="0.29" stop-color="#46b991"/><stop offset="0.34" stop-color="#2eb592"/><stop offset="0.41" stop-color="#15b093"/><stop offset="0.48" stop-color="#05ad94"/><stop offset="0.53" stop-color="#00ac94"/><stop offset="0.54" stop-color="#00ab93"/><stop offset="0.68" stop-color="#019b86"/><stop offset="0.8" stop-color="#019682"/><stop offset="0.87" stop-color="#017f78"/><stop offset="0.94" stop-color="#016f71"/><stop offset="1" stop-color="#016a6f"/></linearGradient><linearGradient id="linear-gradient-4" x1="-2172.15" y1="945.89" x2="-2115.23" y2="994.32" xlink:href="#linear-gradient-3"/><linearGradient id="linear-gradient-5" x1="-946.8" y1="-136.32" x2="-899.32" y2="-95.91" gradientTransform="translate(587.23 870.99) rotate(55.24)" xlink:href="#linear-gradient-3"/><linearGradient id="linear-gradient-6" x1="-947.68" y1="-134.14" x2="-890.76" y2="-85.71" gradientTransform="translate(587.23 870.99) rotate(55.24)" xlink:href="#linear-gradient-3"/><radialGradient id="radial-gradient" cx="120.54" cy="-127.56" r="17.32" gradientTransform="matrix(0.97, 0.24, -0.24, 0.97, 28.51, 154.97)" gradientUnits="userSpaceOnUse"><stop offset="0.29" stop-color="#019682"/><stop offset="0.4" stop-color="#028c79"/><stop offset="0.62" stop-color="#037c6b"/><stop offset="0.8" stop-color="#047766"/></radialGradient><linearGradient id="linear-gradient-7" x1="-585.97" y1="314.33" x2="-585.88" y2="318.52" gradientTransform="matrix(-0.97, -0.24, 0.24, -0.97, -472.72, 241.82)" gradientUnits="userSpaceOnUse"><stop offset="0.1" stop-color="#d3a92a"/><stop offset="0.14" stop-color="#d3a42a"/><stop offset="0.39" stop-color="#d08b29"/><stop offset="0.61" stop-color="#cf7b29"/><stop offset="0.8" stop-color="#ce7629"/></linearGradient></defs><g id="Layer_2" data-name="Layer 2"><g id="Layer_1-2" data-name="Layer 1"><path class="cls-1" d="M204,115.36h0a.25.25,0,0,1-.19-.3,93.94,93.94,0,0,0-1.61-48.48.25.25,0,0,1,.48-.15,94.51,94.51,0,0,1,1.62,48.74A.26.26,0,0,1,204,115.36Z"/><path class="cls-2" d="M21.78,72.55h-.06a.25.25,0,0,1-.18-.3A94.23,94.23,0,0,1,54.21,20.59,93.85,93.85,0,0,1,160,12.68,94.37,94.37,0,0,1,193.6,46a.25.25,0,1,1-.43.25A93.28,93.28,0,0,0,112.86.5,92.28,92.28,0,0,0,54.52,21,93.7,93.7,0,0,0,22,72.36.25.25,0,0,1,21.78,72.55Z"/><path class="cls-3" d="M228.38,31.19A56.57,56.57,0,0,1,210.6,46l-1.46.76s7.18-7.9,5.63-7.1c-1,.5-10,6.44-17.67,10.56-1.16.62,5.53-5.87,4.46-5.27-3.36,1.88-13.83,9.09-15,10.15-4.13,3.64-6.8,5.44-9.64,10.76a21.56,21.56,0,0,0-2.31,3.83c-1.56,3-4.4,7.23-3.89,14.35a9.93,9.93,0,0,1,1.56-4.48c2.18-3.25,6.64-12.12,25.13-23.6C209,48.74,225.49,46.79,228.38,31.19Z"/><path class="cls-4" d="M172.3,79.89c2.17-3.25,8-13,25.13-23.6,11.66-7.19,28.1-9.18,31-24.78,0,0,1.64,11.24-7.32,16.3a96.63,96.63,0,0,1-14.75,7s7.2-2,9-2.81-5.19,8.44-10.68,10.26A83.81,83.81,0,0,1,193.88,65s4.45-.09,6.13-.79-8.41,7.17-14.08,7.43S172.3,79.89,172.3,79.89Z"/><path class="cls-5" d="M8.78,108.37h.83V115H8.78Z"/><path class="cls-5" d="M12.32,109.66V115h-.83v-6.66h.85l3.84,5.26v-5.26H17V115h-.8Z"/><path class="cls-5" d="M20.54,109.11H18.43v-.74h5.06v.74H21.37V115h-.83Z"/><path class="cls-5" d="M24.91,108.37h4.37v.74H25.74v2.15h3.47V112H25.74v2.29h3.54V115H24.91Z"/><path class="cls-5" d="M34.08,108.26a3.18,3.18,0,0,1,2.59,1.25l-.66.41a2.46,2.46,0,0,0-1.93-.92,2.71,2.71,0,0,0,0,5.42,2.68,2.68,0,0,0,1.79-.71v-1.36H33.58v-.74H36.7V114a3.47,3.47,0,0,1-2.62,1.15,3.45,3.45,0,0,1,0-6.9Z"/><path class="cls-5" d="M40.53,112.39H39.2V115h-.83v-6.66h2.68a1.94,1.94,0,0,1,2.09,2,1.84,1.84,0,0,1-1.73,1.94l1.8,2.71h-1Zm.42-3.28H39.2v2.55H41a1.28,1.28,0,1,0,0-2.55Z"/><path class="cls-5" d="M49,113.56H45.59L45,115h-.92l2.68-6.66h1L50.47,115h-.91Zm-3.14-.74h2.89l-1.44-3.71Z"/><path class="cls-5" d="M52.65,109.11H50.54v-.74H55.6v.74H53.48V115h-.83Z"/><path class="cls-5" d="M57,108.37h.83V115H57Z"/><path class="cls-5" d="M59,108.37h1l2.25,5.75,2.25-5.75h.94L62.75,115h-1Z"/><path class="cls-5" d="M66.63,108.37H71v.74H67.46v2.15h3.47V112H67.46v2.29H71V115H66.63Z"/><path class="cls-5" d="M77.19,109.11H75.08v-.74h5.06v.74H78V115h-.83Z"/><path class="cls-5" d="M86.29,112h-3.9v3h-.83v-6.66h.83v2.87h3.9v-2.87h.83V115h-.83Z"/><path class="cls-5" d="M89,108.37h4.37v.74H89.83v2.15H93.3V112H89.83v2.29h3.54V115H89Z"/><path class="cls-5" d="M97.17,112.39H95.84V115H95v-6.66h2.68a1.93,1.93,0,0,1,2.08,2,1.84,1.84,0,0,1-1.72,1.94l1.8,2.71h-1Zm.42-3.28H95.84v2.55h1.75a1.28,1.28,0,1,0,0-2.55Z"/><path class="cls-5" d="M105.61,113.56h-3.38l-.59,1.47h-.92l2.68-6.66h1l2.68,6.66h-.91Zm-3.14-.74h2.89l-1.44-3.71Z"/><path class="cls-5" d="M108.31,108.37H111a2,2,0,1,1,0,4h-1.85V115h-.83Zm2.58.74h-1.75v2.54h1.75a1.27,1.27,0,1,0,0-2.54Z"/><path class="cls-5" d="M116.41,112.22l-2.63-3.85h1l2.07,3.1,2.07-3.1h1l-2.61,3.85V115h-.83Z"/><path class="cls-6" d="M197.69,118.12h.44v4.81h2.53v.41h-3Z"/><path class="cls-6" d="M206.07,118.7l-1.91,4.64H204l-1.91-4.64v4.64h-.44v-5.22h.66l1.78,4.32,1.77-4.32h.67v5.22h-.45Z"/><path class="cls-6" d="M207.82,122.26a2.12,2.12,0,0,0,1.63.76c1.07,0,1.38-.59,1.38-1,0-.73-.7-.94-1.43-1.13s-1.7-.46-1.7-1.43a1.52,1.52,0,0,1,1.71-1.39,2.21,2.21,0,0,1,1.77.74l-.3.32a1.85,1.85,0,0,0-1.49-.65c-.7,0-1.22.4-1.22,1s.65.8,1.36,1,1.77.5,1.77,1.56c0,.67-.45,1.48-1.86,1.48a2.39,2.39,0,0,1-1.91-.83Z"/><path class="cls-6" d="M215.12,118.85l-1.25,4.49h-.5l-1.5-5.22h.5l1.27,4.59,1.28-4.59h.41l1.27,4.59,1.26-4.59h.5l-1.48,5.22h-.51Z"/><path class="cls-6" d="M19.64,94.59a3.19,3.19,0,0,1-.08.63,1.53,1.53,0,0,1-.39.68,2.51,2.51,0,0,1-.94.55,4.84,4.84,0,0,1-1.69.23,4.51,4.51,0,0,1-1.68-.25,2.48,2.48,0,0,1-.92-.59,1.5,1.5,0,0,1-.39-.7,2.47,2.47,0,0,1-.08-.59V80.34a2.24,2.24,0,0,0-.08-.57,2.32,2.32,0,0,0-.24-.53,1.38,1.38,0,0,0-.41-.39,1,1,0,0,0-.56-.16,2,2,0,0,0-1.06.32,5.69,5.69,0,0,0-1,.71,8.27,8.27,0,0,0-.78.8c-.22.27-.38.47-.48.61V94.59a2.58,2.58,0,0,1-.08.63,1.36,1.36,0,0,1-.39.68,2.49,2.49,0,0,1-.92.55,4.78,4.78,0,0,1-1.68.23,4.51,4.51,0,0,1-1.68-.25,2.44,2.44,0,0,1-.93-.59,1.55,1.55,0,0,1-.41-.7,3.12,3.12,0,0,1-.08-.59V79a1.89,1.89,0,0,0-.27-1,1,1,0,0,0-.91-.43,1.35,1.35,0,0,0-.59.12,3,3,0,0,0-.52.34L0,77.55a8.7,8.7,0,0,1,1-.75,8,8,0,0,1,1.23-.66,8.55,8.55,0,0,1,1.43-.46,7,7,0,0,1,1.61-.18,4,4,0,0,1,2,.43A2.86,2.86,0,0,1,8.4,77a3.07,3.07,0,0,1,.41,1.25,9.79,9.79,0,0,1,.07,1.1,15.18,15.18,0,0,1,2-1.91,11.27,11.27,0,0,1,1-.71A11.65,11.65,0,0,1,13,76.09a7.15,7.15,0,0,1,1.17-.43,4.52,4.52,0,0,1,1.21-.16,4.36,4.36,0,0,1,2,.42,4.08,4.08,0,0,1,1.32,1,4,4,0,0,1,.74,1.24,3.65,3.65,0,0,1,.23,1.14,16.5,16.5,0,0,1,2-1.91,10.87,10.87,0,0,1,1-.71,10.66,10.66,0,0,1,1.1-.61,7.39,7.39,0,0,1,1.16-.43,4.5,4.5,0,0,1,1.2-.16,4.21,4.21,0,0,1,2,.43,3.79,3.79,0,0,1,1.33,1.14,4.86,4.86,0,0,1,.73,1.58,7.17,7.17,0,0,1,.23,1.77V92.86c0,.13,0,.26,0,.4a1.8,1.8,0,0,0,.1.4.76.76,0,0,0,.25.31.81.81,0,0,0,.46.12,1,1,0,0,0,.68-.27,7.3,7.3,0,0,0,.56-.55l.48.42a7.28,7.28,0,0,1-.74.93,7,7,0,0,1-1.09,1,6,6,0,0,1-1.47.77,5.34,5.34,0,0,1-1.88.31,4.5,4.5,0,0,1-1.54-.23,3.35,3.35,0,0,1-1.1-.62,2.43,2.43,0,0,1-.68-.92,2.93,2.93,0,0,1-.22-1.14V80.34a2.24,2.24,0,0,0-.08-.57,1.94,1.94,0,0,0-.23-.53,1.21,1.21,0,0,0-.39-.39,1,1,0,0,0-.57-.16,2.07,2.07,0,0,0-1.07.32,5.77,5.77,0,0,0-1,.71,7.09,7.09,0,0,0-.77.8c-.21.27-.37.47-.46.61Z"/><path class="cls-6" d="M41.51,77.15a4.65,4.65,0,0,0-1.27.16,4,4,0,0,0-1,.4,2.34,2.34,0,0,0-.67.53.91.91,0,0,0-.24.55.45.45,0,0,0,.31.44c.21.08.44.19.7.3A2.26,2.26,0,0,1,40,80a1.31,1.31,0,0,1,.31,1,1.77,1.77,0,0,1-.17.77,2.13,2.13,0,0,1-.46.62,2.1,2.1,0,0,1-.69.42,2.05,2.05,0,0,1-.81.16,2.34,2.34,0,0,1-1.82-.77,2.9,2.9,0,0,1-.69-2,3.42,3.42,0,0,1,.64-2.1A5.14,5.14,0,0,1,38,76.6a8.63,8.63,0,0,1,2.34-.83A12.85,12.85,0,0,1,43,75.5a12.71,12.71,0,0,1,3,.34,7.56,7.56,0,0,1,2.52,1.09,5.62,5.62,0,0,1,1.75,1.88,5.5,5.5,0,0,1,.65,2.78V93c0,.12,0,.25,0,.4a1.56,1.56,0,0,0,.1.4.81.81,0,0,0,.25.3.74.74,0,0,0,.46.12,1,1,0,0,0,.67-.27,4.76,4.76,0,0,0,.55-.55l.51.42c-.2.28-.45.59-.73.92a5.62,5.62,0,0,1-2.43,1.69,5.2,5.2,0,0,1-1.83.3,3.47,3.47,0,0,1-3.54-3.07,8.19,8.19,0,0,1-1.33,1.45,7.12,7.12,0,0,1-1.42.94,5.94,5.94,0,0,1-1.46.52,6.69,6.69,0,0,1-1.47.16,5.86,5.86,0,0,1-1.87-.3,4.42,4.42,0,0,1-1.62-.95,4.68,4.68,0,0,1-1.15-1.7,6.67,6.67,0,0,1-.43-2.55,5.65,5.65,0,0,1,.72-3,6.57,6.57,0,0,1,1.9-2,12.68,12.68,0,0,1,2.68-1.35l3.06-1.19a3.26,3.26,0,0,0,1.7-1.38,3.62,3.62,0,0,0,.53-1.88A3.27,3.27,0,0,0,43.89,78,3.16,3.16,0,0,0,41.51,77.15ZM44.7,86a.9.9,0,0,0-.32-.76,1.22,1.22,0,0,0-.82-.26,2.85,2.85,0,0,0-1.34.32,3.41,3.41,0,0,0-1.12.94,4.93,4.93,0,0,0-.76,1.54,7.16,7.16,0,0,0-.28,2.12,9.32,9.32,0,0,0,.17,1.93A3.89,3.89,0,0,0,40.69,93a1.68,1.68,0,0,0,.68.63,1.84,1.84,0,0,0,.8.18,1.94,1.94,0,0,0,1-.27,3,3,0,0,0,.8-.7,3.24,3.24,0,0,0,.54-.94,2.78,2.78,0,0,0,.2-1Z"/><path class="cls-6" d="M62.57,79.74a16.13,16.13,0,0,1,1.63-2.11,9.57,9.57,0,0,1,.78-.78,7.81,7.81,0,0,1,.88-.69,4.56,4.56,0,0,1,.93-.48,2.77,2.77,0,0,1,1-.18,2.12,2.12,0,0,1,1.61.61A2.43,2.43,0,0,1,70,77.83a8.11,8.11,0,0,1-.11,1.32,10.92,10.92,0,0,1-.43,1.53h-.57a1.81,1.81,0,0,0-.56-1A1.83,1.83,0,0,0,67,79.24a3.26,3.26,0,0,0-1.22.23,7.1,7.1,0,0,0-1.18.57,10.36,10.36,0,0,0-1.08.75c-.34.26-.66.52-.94.76v13a2.58,2.58,0,0,1-.08.63,1.36,1.36,0,0,1-.39.68,2.58,2.58,0,0,1-.92.55,4.78,4.78,0,0,1-1.68.23,4.51,4.51,0,0,1-1.68-.25,2.57,2.57,0,0,1-.94-.59,1.62,1.62,0,0,1-.4-.7,3.12,3.12,0,0,1-.08-.59V79a1.89,1.89,0,0,0-.27-1,1,1,0,0,0-.91-.43,1.32,1.32,0,0,0-.59.12,3,3,0,0,0-.52.34l-.42-.5a9.44,9.44,0,0,1,1-.75,8.18,8.18,0,0,1,2.67-1.12A6.94,6.94,0,0,1,59,75.5a4.3,4.3,0,0,1,1.48.23,2.85,2.85,0,0,1,1,.6,2.91,2.91,0,0,1,.61.84A4.8,4.8,0,0,1,62.55,79C62.57,79.29,62.57,79.54,62.57,79.74Z"/><path class="cls-6" d="M78.91,94.55a2.79,2.79,0,0,1-.09.64,1.48,1.48,0,0,1-.42.7,2.6,2.6,0,0,1-1,.56,4.88,4.88,0,0,1-1.69.23,4.41,4.41,0,0,1-1.67-.25,2.31,2.31,0,0,1-.9-.59,1.48,1.48,0,0,1-.38-.7,4,4,0,0,1-.07-.59V79a1.89,1.89,0,0,0-.27-1,1,1,0,0,0-.91-.43,1.35,1.35,0,0,0-.59.12,3,3,0,0,0-.52.34l-.42-.5a8.7,8.7,0,0,1,1-.75,8,8,0,0,1,1.23-.66,8.55,8.55,0,0,1,1.43-.46,7,7,0,0,1,1.61-.18,4.84,4.84,0,0,1,2,.35,2.59,2.59,0,0,1,1.06.86,2.43,2.43,0,0,1,.41,1.1,8.09,8.09,0,0,1,.07,1ZM72.12,70.92a2.38,2.38,0,0,1,.25-1.08,2.74,2.74,0,0,1,.7-.89,3.53,3.53,0,0,1,1.05-.61,3.9,3.9,0,0,1,1.3-.22,3.76,3.76,0,0,1,1.27.22,3.36,3.36,0,0,1,1,.61,2.85,2.85,0,0,1,.69.89,2.38,2.38,0,0,1,.25,1.08A2.35,2.35,0,0,1,78.42,72a2.81,2.81,0,0,1-.69.88,3.76,3.76,0,0,1-1,.59,3.53,3.53,0,0,1-1.27.22,3.66,3.66,0,0,1-1.3-.22,4,4,0,0,1-1.05-.59,2.7,2.7,0,0,1-.7-.88A2.35,2.35,0,0,1,72.12,70.92Z"/><path class="cls-6" d="M90.43,77.11a3,3,0,0,0-.87.12,2,2,0,0,0-.74.39,1.91,1.91,0,0,0-.5.68,2.45,2.45,0,0,0-.18,1,2.63,2.63,0,0,0,.57,1.56,13.33,13.33,0,0,0,1.43,1.6c.57.56,1.19,1.14,1.85,1.73a22,22,0,0,1,1.85,1.89,10.47,10.47,0,0,1,1.42,2.12,5.16,5.16,0,0,1,.58,2.41,6.52,6.52,0,0,1-.49,2.58,5.35,5.35,0,0,1-1.41,1.91,6.26,6.26,0,0,1-2.21,1.19,9.39,9.39,0,0,1-2.89.41,7.64,7.64,0,0,1-2.51-.39,9.05,9.05,0,0,1-2-1,8.93,8.93,0,0,1-1.5-1.22,9.23,9.23,0,0,1-1-1.16l.7-.51a8.47,8.47,0,0,0,.67.66,6.19,6.19,0,0,0,.89.65,5.58,5.58,0,0,0,1.05.49,3.51,3.51,0,0,0,1.15.19,3.83,3.83,0,0,0,2.37-.69,2.41,2.41,0,0,0,.93-2.06,3,3,0,0,0-.51-1.58,12.24,12.24,0,0,0-1.26-1.68c-.51-.57-1.06-1.17-1.65-1.79a22.8,22.8,0,0,1-1.65-1.91,10.64,10.64,0,0,1-1.26-2,4.87,4.87,0,0,1-.51-2.17,4.48,4.48,0,0,1,.52-2.21,4.68,4.68,0,0,1,1.36-1.57,6.28,6.28,0,0,1,2-.93,8.16,8.16,0,0,1,2.26-.31,11.66,11.66,0,0,1,2.46.24,6.27,6.27,0,0,1,1.9.73,3.61,3.61,0,0,1,1.22,1.24,3.37,3.37,0,0,1,.43,1.73,1.92,1.92,0,0,1-.5,1.33,1.79,1.79,0,0,1-1.41.56A2.06,2.06,0,0,1,91.67,81a1.27,1.27,0,0,1-.46-1,1,1,0,0,1,.22-.66,1.75,1.75,0,0,1,.47-.39c.17-.11.33-.19.47-.27a.32.32,0,0,0,.21-.29,1,1,0,0,0-.6-.89A3.21,3.21,0,0,0,90.43,77.11Z"/><path class="cls-6" d="M105.69,77.23V92.08a2.12,2.12,0,0,0,.4,1.48,1.49,1.49,0,0,0,1.1.41,1.62,1.62,0,0,0,1-.3,3.6,3.6,0,0,0,.72-.68,4.65,4.65,0,0,0,.63-1l.62.28c-.2.43-.44.9-.71,1.41a5.84,5.84,0,0,1-1.1,1.42,5.76,5.76,0,0,1-1.72,1.09,6.57,6.57,0,0,1-2.6.44,5.35,5.35,0,0,1-1.7-.26,4,4,0,0,1-1.45-.82,4.17,4.17,0,0,1-1-1.41,4.81,4.81,0,0,1-.38-2V77.23H97.2V75.78a6.22,6.22,0,0,0,1.57-.29,8.11,8.11,0,0,0,4-2.81,6.91,6.91,0,0,0,1.29-2.83h1.61v5.93H109c1.08,0,1.61-.18,1.61-.54a.26.26,0,0,0-.2-.27l-.45-.18a1.42,1.42,0,0,1-.45-.32.87.87,0,0,1-.2-.66,1.11,1.11,0,0,1,.35-.88,1.41,1.41,0,0,1,1.54-.18,1.4,1.4,0,0,1,.46.41,1.77,1.77,0,0,1,.27.57,2.35,2.35,0,0,1,.09.64,2.82,2.82,0,0,1-.76,2.08,3.24,3.24,0,0,1-2.42.78Z"/><path class="cls-6" d="M117.83,87.14a5.51,5.51,0,0,0,.19,1.39,8.44,8.44,0,0,0,.55,1.52,7.66,7.66,0,0,0,.9,1.46,6.76,6.76,0,0,0,1.22,1.23,5.83,5.83,0,0,0,1.54.87,5.24,5.24,0,0,0,1.85.32,5,5,0,0,0,1.31-.16,5.22,5.22,0,0,0,1.12-.44,7.94,7.94,0,0,0,1-.66c.32-.24.64-.51,1-.79l.5.48a12.89,12.89,0,0,1-1.18,1.37,9.76,9.76,0,0,1-1.75,1.4,10.08,10.08,0,0,1-5.51,1.51,9.58,9.58,0,0,1-3.41-.63,8.4,8.4,0,0,1-2.94-1.9A9.27,9.27,0,0,1,112.13,91a11.58,11.58,0,0,1-.77-4.43,11.45,11.45,0,0,1,.46-3.35,10.86,10.86,0,0,1,1.25-2.76,10.65,10.65,0,0,1,1.85-2.15,12.29,12.29,0,0,1,2.22-1.54,11.66,11.66,0,0,1,2.39-.92,9.3,9.3,0,0,1,2.34-.31,9.5,9.5,0,0,1,2.59.32,5.71,5.71,0,0,1,1.84.86,3.73,3.73,0,0,1,1.1,1.26,3.31,3.31,0,0,1,.36,1.5,2.81,2.81,0,0,1-.55,1.7,5,5,0,0,1-1.44,1.31Zm4-4.08a3.43,3.43,0,0,0,.43-.32,1.22,1.22,0,0,0,.27-.36,1.69,1.69,0,0,0,.15-.52,4.32,4.32,0,0,0,0-.77,5.8,5.8,0,0,0-.11-1.12,4.62,4.62,0,0,0-.37-1.16,2.77,2.77,0,0,0-.66-.9,1.4,1.4,0,0,0-1-.36,1.83,1.83,0,0,0-1.23.43,3.23,3.23,0,0,0-.85,1.12,7,7,0,0,0-.52,1.55c-.13.59-.22,1.17-.29,1.76s-.11,1.16-.12,1.7,0,1,0,1.38Z"/><path class="cls-6" d="M137.51,94.59a2.64,2.64,0,0,1-.09.63,1.45,1.45,0,0,1-.43.68,2.7,2.7,0,0,1-1,.55,4.94,4.94,0,0,1-1.7.23,4.41,4.41,0,0,1-1.67-.25,2.19,2.19,0,0,1-.89-.59,1.43,1.43,0,0,1-.36-.7,3.12,3.12,0,0,1-.08-.59V68.62a1.88,1.88,0,0,0-.27-1,1,1,0,0,0-.91-.43,1.32,1.32,0,0,0-.59.11,2.31,2.31,0,0,0-.54.33l-.4-.48a11,11,0,0,1,1-.76,7.92,7.92,0,0,1,1.23-.65,9,9,0,0,1,1.44-.46,7,7,0,0,1,1.61-.18,4.66,4.66,0,0,1,2,.35,2.46,2.46,0,0,1,1.48,2,10.1,10.1,0,0,1,.07,1Z"/><path class="cls-6" d="M148.42,77.15a4.65,4.65,0,0,0-1.27.16,4,4,0,0,0-1,.4,2.43,2.43,0,0,0-.66.53.87.87,0,0,0-.25.55.46.46,0,0,0,.32.44l.69.3a2.26,2.26,0,0,1,.69.48,1.31,1.31,0,0,1,.31,1,1.64,1.64,0,0,1-.17.77,2,2,0,0,1-.46.62,2.28,2.28,0,0,1-1.5.58,2.32,2.32,0,0,1-1.81-.77,2.86,2.86,0,0,1-.7-2,3.49,3.49,0,0,1,.64-2.1,5.14,5.14,0,0,1,1.68-1.44,8.63,8.63,0,0,1,2.34-.83,13,13,0,0,1,2.62-.27,12.69,12.69,0,0,1,3,.34,7.61,7.61,0,0,1,2.53,1.09,5.33,5.33,0,0,1,2.4,4.66V93a2.89,2.89,0,0,0,0,.4,1,1,0,0,0,.1.4.7.7,0,0,0,.24.3.76.76,0,0,0,.46.12,1,1,0,0,0,.67-.27,4.87,4.87,0,0,0,.56-.55l.5.42c-.2.28-.44.59-.72.92a5.92,5.92,0,0,1-1,1,5.86,5.86,0,0,1-1.41.74,5.16,5.16,0,0,1-1.83.3,3.63,3.63,0,0,1-2.25-.75,3.68,3.68,0,0,1-1.28-2.32,8.62,8.62,0,0,1-1.34,1.45,6.85,6.85,0,0,1-1.42.94,5.88,5.88,0,0,1-1.45.52,6.77,6.77,0,0,1-1.48.16,5.9,5.9,0,0,1-1.87-.3,4.59,4.59,0,0,1-1.62-.95,4.66,4.66,0,0,1-1.14-1.7,6.66,6.66,0,0,1-.44-2.55,5.56,5.56,0,0,1,.73-3,6.34,6.34,0,0,1,1.9-2,12.36,12.36,0,0,1,2.67-1.35l3.07-1.19a3.27,3.27,0,0,0,1.69-1.38,3.64,3.64,0,0,0,.54-1.88A3.24,3.24,0,0,0,150.8,78,3.14,3.14,0,0,0,148.42,77.15Zm3.2,8.8a.91.91,0,0,0-.33-.76,1.21,1.21,0,0,0-.82-.26,2.88,2.88,0,0,0-1.34.32,3.28,3.28,0,0,0-1.11.94,4.94,4.94,0,0,0-.77,1.54,7.51,7.51,0,0,0-.28,2.12,9.32,9.32,0,0,0,.17,1.93,3.88,3.88,0,0,0,.47,1.22,1.6,1.6,0,0,0,.67.63,1.84,1.84,0,0,0,.8.18,1.94,1.94,0,0,0,1-.27,2.81,2.81,0,0,0,.8-.7,3.52,3.52,0,0,0,.55-.94,3,3,0,0,0,.2-1Z"/><path class="cls-6" d="M138.81,105.57a4.15,4.15,0,0,0,.35-.57,1.24,1.24,0,0,0,.15-.56q0-.37-.6-.54a10.08,10.08,0,0,0-2.23-.16,5,5,0,0,0-1.67.24,3.79,3.79,0,0,0-1.1.59,3.2,3.2,0,0,0-.7.78c-.18.28-.34.53-.47.77a5.44,5.44,0,0,1-.4.59.59.59,0,0,1-.49.24.85.85,0,0,1-.59-.22,1.53,1.53,0,0,1-.41-.55,3.22,3.22,0,0,1-.25-.72,4.18,4.18,0,0,1-.08-.76,1.4,1.4,0,0,1,.47-1,3.69,3.69,0,0,1,1.34-.8,11.05,11.05,0,0,1,2.16-.52,19.74,19.74,0,0,1,2.93-.19,34.13,34.13,0,0,1,4.35.22,12.14,12.14,0,0,1,2.62.59,2.67,2.67,0,0,1,1.29.9,2,2,0,0,1,.34,1.12,2,2,0,0,1-.15.72,5.17,5.17,0,0,1-.36.75c-.14.24-.28.47-.42.67s-.25.36-.31.46l-8.37,12.8-.19.31a1,1,0,0,0-.13.47.44.44,0,0,0,.11.29,1,1,0,0,0,.43.2,4.94,4.94,0,0,0,.89.11q.59,0,1.53,0a6.65,6.65,0,0,0,2-.26,4.11,4.11,0,0,0,1.29-.67,3.58,3.58,0,0,0,.81-.85c.2-.3.37-.59.52-.86a5.84,5.84,0,0,1,.43-.66.7.7,0,0,1,.56-.26.85.85,0,0,1,.6.25,2.28,2.28,0,0,1,.44.63,3.67,3.67,0,0,1,.27.83,4,4,0,0,1,.09.8,1.43,1.43,0,0,1-.48,1,4,4,0,0,1-1.47.82,11.75,11.75,0,0,1-2.5.55,26.59,26.59,0,0,1-3.59.21,31.58,31.58,0,0,1-3.8-.19,11.53,11.53,0,0,1-2.55-.53,3.17,3.17,0,0,1-1.43-.89,2,2,0,0,1-.44-1.27,2.65,2.65,0,0,1,.27-1.15,8.45,8.45,0,0,1,.8-1.32Z"/><path class="cls-6" d="M154.32,113.83a5.55,5.55,0,0,0,.2,1.39,7.74,7.74,0,0,0,.55,1.52,8.15,8.15,0,0,0,.89,1.46,7.59,7.59,0,0,0,1.23,1.24,5.65,5.65,0,0,0,1.54.86,5.24,5.24,0,0,0,1.85.32,4.87,4.87,0,0,0,1.3-.16A5.3,5.3,0,0,0,163,120a8.15,8.15,0,0,0,1-.65c.32-.25.65-.52,1-.8l.5.48a13.1,13.1,0,0,1-1.19,1.37,9.68,9.68,0,0,1-1.74,1.4,10.42,10.42,0,0,1-2.4,1.08,10.24,10.24,0,0,1-3.11.44,9.55,9.55,0,0,1-3.41-.64,8.31,8.31,0,0,1-2.94-1.9,9.12,9.12,0,0,1-2.06-3.15,11.55,11.55,0,0,1-.78-4.42,11.87,11.87,0,0,1,.46-3.36,10.88,10.88,0,0,1,1.26-2.76,10.65,10.65,0,0,1,1.85-2.15,11.4,11.4,0,0,1,4.6-2.46,9.32,9.32,0,0,1,2.35-.31,9.5,9.5,0,0,1,2.59.32,5.82,5.82,0,0,1,1.84.87,3.56,3.56,0,0,1,1.09,1.25,3.31,3.31,0,0,1,.36,1.5,2.84,2.84,0,0,1-.54,1.7,4.86,4.86,0,0,1-1.45,1.31Zm4.05-4.08a4.42,4.42,0,0,0,.43-.31,1.26,1.26,0,0,0,.27-.37,2,2,0,0,0,.15-.52,5.41,5.41,0,0,0,.05-.77,6.71,6.71,0,0,0-.11-1.12,4.84,4.84,0,0,0-.37-1.15,2.87,2.87,0,0,0-.67-.91,1.38,1.38,0,0,0-1-.36,1.85,1.85,0,0,0-1.24.43,3.33,3.33,0,0,0-.84,1.12,6.49,6.49,0,0,0-.52,1.56,17.29,17.29,0,0,0-.3,1.75c-.06.59-.1,1.16-.12,1.7s0,1,0,1.38Z"/><path class="cls-6" d="M174,121.28a2.64,2.64,0,0,1-.09.63,1.43,1.43,0,0,1-.42.68,2.56,2.56,0,0,1-1,.55,5,5,0,0,1-1.7.24,4.39,4.39,0,0,1-1.67-.26,2.31,2.31,0,0,1-.9-.59,1.62,1.62,0,0,1-.36-.7,4,4,0,0,1-.07-.59V95.32a1.89,1.89,0,0,0-.27-1,1,1,0,0,0-.91-.43,1.57,1.57,0,0,0-.6.11,2.27,2.27,0,0,0-.53.33l-.4-.48a12.3,12.3,0,0,1,1-.76,8.52,8.52,0,0,1,1.24-.65,9,9,0,0,1,1.44-.46,6.94,6.94,0,0,1,1.6-.18,4.86,4.86,0,0,1,2,.35,2.59,2.59,0,0,1,1.06.86,2.43,2.43,0,0,1,.41,1.09,7.8,7.8,0,0,1,.07,1Z"/><path class="cls-6" d="M185.28,121.28a2.64,2.64,0,0,1-.09.63,1.43,1.43,0,0,1-.42.68,2.69,2.69,0,0,1-1,.55,4.91,4.91,0,0,1-1.7.24,4.42,4.42,0,0,1-1.67-.26,2.19,2.19,0,0,1-.89-.59,1.62,1.62,0,0,1-.36-.7,3,3,0,0,1-.07-.59V95.32a1.89,1.89,0,0,0-.27-1,1,1,0,0,0-.92-.43,1.51,1.51,0,0,0-.59.11,2.08,2.08,0,0,0-.53.33l-.41-.48a11,11,0,0,1,1-.76,8,8,0,0,1,1.24-.65,8.55,8.55,0,0,1,1.43-.46,7,7,0,0,1,1.61-.18,4.81,4.81,0,0,1,2,.35,2.63,2.63,0,0,1,1.07.86,2.69,2.69,0,0,1,.41,1.09,7.8,7.8,0,0,1,.07,1Z"/><path class="cls-7" d="M142.06,9.94a56.63,56.63,0,0,0,8.87,21.39c3.48,5,.94,1.34.94,1.34s-2.7-10.33-1.69-8.89c.62.88,5.87,10.33,10.75,17.55.74,1.09-2.18-7.77-1.51-6.74,2.11,3.22,8,14.46,8.6,16,2,5.15,3.55,7.71,3.6,13.74a18.88,18.88,0,0,1,.54,5.16c0,3.39.21,8-3.54,14.1a9.93,9.93,0,0,0,.7-4.7C168.89,75,169.07,65,158,46.28,151.05,34.47,137.38,25.1,142.06,9.94Z"/><path class="cls-8" d="M169.13,79.11c-.42-3.89-1-15.23-11.31-32.57-7-11.78-20.63-21.18-15.95-36.34,0,0-6.68,9.2-1.08,17.83a96.35,96.35,0,0,0,9.81,13.06S145.13,36,144,34.44s.68,9.88,4.69,14a84.88,84.88,0,0,0,8.27,7.42s-3.9-2.15-5.07-3.55,4.12,10.25,9,13.11S169.13,79.11,169.13,79.11Z"/><path class="cls-9" d="M170.24,63.21a4.4,4.4,0,0,1,8.55,2.11c-.36,1.47-3,5.19-5,7.8-1.17,1.56-2,2.77-2.17,2.72a17,17,0,0,1-.65-3.42C170.49,69.2,169.87,64.7,170.24,63.21Z"/><path class="cls-10" d="M171.48,76.6l2.35-3.48a9.16,9.16,0,0,1-1.48-.05,8.4,8.4,0,0,1-1.34-.65Z"/></g></g></svg>