<svg xmlns="http://www.w3.org/2000/svg" xmlns:xlink="http://www.w3.org/1999/xlink" viewBox="0 0 220.33 136.94"><defs><style>.cls-1{fill:#010101;}.cls-2{fill:url(#linear-gradient);}.cls-3{fill:url(#linear-gradient-2);}.cls-4{fill:url(#linear-gradient-3);}.cls-5{fill:url(#linear-gradient-4);}.cls-6{fill:url(#radial-gradient);}.cls-7{fill:url(#linear-gradient-5);}.cls-8{fill:#049d79;}.cls-9{fill:url(#linear-gradient-6);}.cls-10{fill:url(#linear-gradient-7);}.cls-11{fill:url(#linear-gradient-8);}.cls-12{fill:url(#linear-gradient-9);}</style><linearGradient id="linear-gradient" x1="-2776.73" y1="1099.15" x2="-2730.59" y2="1138.42" gradientTransform="matrix(-0.88, 0.47, 0.47, 0.88, -2765.49, 345.49)" gradientUnits="userSpaceOnUse"><stop offset="0.05" stop-color="#bbd132"/><stop offset="0.1" stop-color="#98ca4e"/><stop offset="0.15" stop-color="#74c36b"/><stop offset="0.21" stop-color="#5bbd80"/><stop offset="0.25" stop-color="#4bba8d"/><stop offset="0.29" stop-color="#46b991"/><stop offset="0.34" stop-color="#2eb592"/><stop offset="0.41" stop-color="#15b093"/><stop offset="0.48" stop-color="#05ad94"/><stop offset="0.53" stop-color="#00ac94"/><stop offset="0.54" stop-color="#00ab93"/><stop offset="0.68" stop-color="#019b86"/><stop offset="0.8" stop-color="#019682"/><stop offset="0.87" stop-color="#017f78"/><stop offset="0.94" stop-color="#016f71"/><stop offset="1" stop-color="#016a6f"/></linearGradient><linearGradient id="linear-gradient-2" x1="-2777.51" y1="1101.19" x2="-2722.05" y2="1148.38" xlink:href="#linear-gradient"/><linearGradient id="linear-gradient-3" x1="-1106.81" y1="-373.81" x2="-1060.61" y2="-334.5" gradientTransform="matrix(0.57, 0.82, -0.82, 0.57, 483.08, 1125.83)" xlink:href="#linear-gradient"/><linearGradient id="linear-gradient-4" x1="-1107.66" y1="-371.68" x2="-1052.2" y2="-324.49" gradientTransform="matrix(0.57, 0.82, -0.82, 0.57, 483.08, 1125.83)" xlink:href="#linear-gradient"/><radialGradient id="radial-gradient" cx="65.53" cy="-181" r="16.87" gradientTransform="translate(63.33 209.2) rotate(13.51)" gradientUnits="userSpaceOnUse"><stop offset="0.29" stop-color="#019682"/><stop offset="0.4" stop-color="#028c79"/><stop offset="0.62" stop-color="#037c6b"/><stop offset="0.8" stop-color="#047766"/></radialGradient><linearGradient id="linear-gradient-5" x1="-1234.82" y1="358.01" x2="-1234.73" y2="362.09" gradientTransform="matrix(-0.97, -0.23, 0.23, -0.97, -1119.36, 124.22)" gradientUnits="userSpaceOnUse"><stop offset="0.1" stop-color="#d3a92a"/><stop offset="0.14" stop-color="#d3a42a"/><stop offset="0.39" stop-color="#d08b29"/><stop offset="0.61" stop-color="#cf7b29"/><stop offset="0.8" stop-color="#ce7629"/></linearGradient><linearGradient id="linear-gradient-6" x1="80.46" y1="112.21" x2="175.22" y2="112.21" gradientUnits="userSpaceOnUse"><stop offset="0.01" stop-color="#e9be7b"/><stop offset="0.13" stop-color="#e0b16a"/><stop offset="0.37" stop-color="#c88f3d"/><stop offset="0.47" stop-color="#be812b"/><stop offset="0.95" stop-color="#e8bc7f"/></linearGradient><linearGradient id="linear-gradient-7" x1="188.64" y1="84.06" x2="203.26" y2="84.06" gradientUnits="userSpaceOnUse"><stop offset="0.01" stop-color="#e9be7b"/><stop offset="0.13" stop-color="#e0b16a"/><stop offset="0.38" stop-color="#c88f3d"/><stop offset="0.48" stop-color="#be812b"/><stop offset="0.95" stop-color="#e8bc7f"/></linearGradient><linearGradient id="linear-gradient-8" x1="147.26" y1="23.35" x2="187.2" y2="23.35" gradientUnits="userSpaceOnUse"><stop offset="0.01" stop-color="#e9be7b"/><stop offset="0.2" stop-color="#e0b16a"/><stop offset="0.59" stop-color="#c88f3d"/><stop offset="0.73" stop-color="#be812b"/><stop offset="0.95" stop-color="#e8bc7f"/></linearGradient><linearGradient id="linear-gradient-9" x1="81.63" y1="35.78" x2="129.87" y2="35.78" xlink:href="#linear-gradient-8"/></defs><g id="Layer_2" data-name="Layer 2"><g id="Layer_1-2" data-name="Layer 1"><path class="cls-1" d="M19.13,81.53a2.84,2.84,0,0,1-.07.6,1.41,1.41,0,0,1-.39.67,2.35,2.35,0,0,1-.91.54,4.84,4.84,0,0,1-1.64.22,4.55,4.55,0,0,1-1.64-.24,2.55,2.55,0,0,1-.9-.58,1.49,1.49,0,0,1-.38-.69,2.86,2.86,0,0,1-.08-.56V67.64a1.85,1.85,0,0,0-.08-.56,1.87,1.87,0,0,0-.23-.52,1.56,1.56,0,0,0-.39-.38,1,1,0,0,0-.55-.15,2,2,0,0,0-1,.31,5.91,5.91,0,0,0-.95.69,6.21,6.21,0,0,0-.76.79c-.22.26-.37.45-.46.58V81.53a2.92,2.92,0,0,1-.08.6,1.39,1.39,0,0,1-.38.67,2.56,2.56,0,0,1-.9.54,4.84,4.84,0,0,1-1.64.22A4.45,4.45,0,0,1,4,83.32a2.75,2.75,0,0,1-.92-.58,1.51,1.51,0,0,1-.39-.69,2.86,2.86,0,0,1-.08-.56V66.37a1.79,1.79,0,0,0-.26-1A1,1,0,0,0,1.49,65a1.41,1.41,0,0,0-.57.11,2.65,2.65,0,0,0-.51.34L0,64.92a10.57,10.57,0,0,1,1-.74,7.57,7.57,0,0,1,1.2-.63A7.54,7.54,0,0,1,3.6,63.1a6.69,6.69,0,0,1,1.57-.18,3.89,3.89,0,0,1,2,.42,2.89,2.89,0,0,1,1,1,3.25,3.25,0,0,1,.4,1.22c0,.43.07.78.07,1.07a15,15,0,0,1,2-1.86c.29-.23.61-.46.95-.69a10.25,10.25,0,0,1,1.07-.59,6,6,0,0,1,1.14-.42,4.62,4.62,0,0,1,3.11.25,4,4,0,0,1,1.29,1,3.8,3.8,0,0,1,.72,1.21,3.44,3.44,0,0,1,.22,1.11,17.21,17.21,0,0,1,2-1.86c.29-.23.6-.46.94-.69a8.55,8.55,0,0,1,1.07-.59,6,6,0,0,1,1.14-.42,4.53,4.53,0,0,1,3.1.26,3.5,3.5,0,0,1,1.29,1.11A4.54,4.54,0,0,1,29.37,66a6.84,6.84,0,0,1,.22,1.73V79.84c0,.12,0,.25,0,.38a1.59,1.59,0,0,0,.1.39.63.63,0,0,0,.25.31.72.72,0,0,0,.44.12,1,1,0,0,0,.66-.27,5.62,5.62,0,0,0,.55-.54l.47.41a7.09,7.09,0,0,1-.72.91,6.64,6.64,0,0,1-1.07,1,5.55,5.55,0,0,1-1.43.76,5.24,5.24,0,0,1-1.83.3,4.48,4.48,0,0,1-1.5-.22,3.42,3.42,0,0,1-1.08-.61,2.47,2.47,0,0,1-.65-.9,2.78,2.78,0,0,1-.22-1.11V67.64a2.23,2.23,0,0,0-.08-.56,2.2,2.2,0,0,0-.22-.52,1.37,1.37,0,0,0-.38-.38,1,1,0,0,0-.55-.15,2,2,0,0,0-1.05.31,5.58,5.58,0,0,0-1,.69,5.49,5.49,0,0,0-.75.79l-.46.58Z"/><path class="cls-1" d="M40.44,64.53a4.82,4.82,0,0,0-1.23.15,4.76,4.76,0,0,0-1,.39,2.51,2.51,0,0,0-.65.52.9.9,0,0,0-.23.54.43.43,0,0,0,.3.42l.68.3a2,2,0,0,1,.67.47,1.23,1.23,0,0,1,.31.93,1.72,1.72,0,0,1-.17.75,2.05,2.05,0,0,1-.45.61A2.15,2.15,0,0,1,38,70a2.09,2.09,0,0,1-.79.15,2.27,2.27,0,0,1-1.77-.75,2.82,2.82,0,0,1-.68-2,3.34,3.34,0,0,1,.63-2A4.78,4.78,0,0,1,37.05,64a8.2,8.2,0,0,1,2.28-.82,12.88,12.88,0,0,1,2.54-.26,12.62,12.62,0,0,1,2.92.33,7.4,7.4,0,0,1,2.46,1.06A5.44,5.44,0,0,1,49,66.15a5.34,5.34,0,0,1,.64,2.7V79.92c0,.12,0,.25,0,.39a1,1,0,0,0,.1.39.63.63,0,0,0,.68.41,1,1,0,0,0,.66-.26,6.87,6.87,0,0,0,.54-.54l.49.41c-.2.28-.43.58-.71.9a5.23,5.23,0,0,1-1,.92,5.73,5.73,0,0,1-1.37.73,5.15,5.15,0,0,1-1.78.29A3.5,3.5,0,0,1,45,82.83a3.6,3.6,0,0,1-1.26-2.26A8.52,8.52,0,0,1,42.47,82a7.71,7.71,0,0,1-1.38.92,6.54,6.54,0,0,1-1.42.51,7,7,0,0,1-1.44.15,5.87,5.87,0,0,1-1.82-.29,4.52,4.52,0,0,1-1.58-.93,4.65,4.65,0,0,1-1.11-1.66,6.33,6.33,0,0,1-.43-2.48A5.44,5.44,0,0,1,34,75.28a6.24,6.24,0,0,1,1.85-1.91,11.81,11.81,0,0,1,2.61-1.32c1-.37,2-.75,3-1.16a3.22,3.22,0,0,0,1.66-1.34,3.66,3.66,0,0,0,.52-1.83,3.16,3.16,0,0,0-.86-2.32A3.08,3.08,0,0,0,40.44,64.53Zm3.12,8.57a.9.9,0,0,0-.32-.74,1.22,1.22,0,0,0-.8-.26,2.81,2.81,0,0,0-1.3.32,3.16,3.16,0,0,0-1.09.92,4.57,4.57,0,0,0-.74,1.5A6.75,6.75,0,0,0,39,76.9a8.8,8.8,0,0,0,.17,1.88A3.7,3.7,0,0,0,39.65,80a1.68,1.68,0,0,0,.66.62,1.89,1.89,0,0,0,.78.17,1.92,1.92,0,0,0,1-.26,2.81,2.81,0,0,0,.78-.68,3.35,3.35,0,0,0,.53-.92,2.85,2.85,0,0,0,.2-1Z"/><path class="cls-1" d="M60.73,67.05a16.12,16.12,0,0,1,1.59-2c.24-.27.49-.52.76-.77a6.56,6.56,0,0,1,.86-.66,3.75,3.75,0,0,1,.91-.47,2.57,2.57,0,0,1,.94-.18,2,2,0,0,1,1.56.6,2.32,2.32,0,0,1,.57,1.67,6.63,6.63,0,0,1-.11,1.28,9,9,0,0,1-.42,1.5h-.55A1.64,1.64,0,0,0,65,66.56a3.31,3.31,0,0,0-1.19.23,6.77,6.77,0,0,0-1.15.56,11,11,0,0,0-1.06.72l-.91.74V81.53a2.84,2.84,0,0,1-.07.6,1.41,1.41,0,0,1-.39.67,2.38,2.38,0,0,1-.9.54,4.78,4.78,0,0,1-1.63.22,4.51,4.51,0,0,1-1.64-.24,2.69,2.69,0,0,1-.91-.58,1.43,1.43,0,0,1-.39-.69,2.86,2.86,0,0,1-.08-.56V66.37a1.87,1.87,0,0,0-.26-1,1,1,0,0,0-.89-.42,1.35,1.35,0,0,0-.57.11,2.65,2.65,0,0,0-.51.34l-.41-.49a9.44,9.44,0,0,1,1-.74,7.57,7.57,0,0,1,1.2-.63,7.3,7.3,0,0,1,1.39-.45,6.69,6.69,0,0,1,1.57-.18,4.11,4.11,0,0,1,1.44.22,2.94,2.94,0,0,1,1,.59,2.76,2.76,0,0,1,.59.82,4.52,4.52,0,0,1,.33.91,4.64,4.64,0,0,1,.12.88C60.73,66.62,60.73,66.86,60.73,67.05Z"/><path class="cls-1" d="M76.89,81.49a2.57,2.57,0,0,1-.09.61,1.43,1.43,0,0,1-.41.69,2.54,2.54,0,0,1-.93.55,4.84,4.84,0,0,1-1.64.22,4.41,4.41,0,0,1-1.63-.24,2.54,2.54,0,0,1-.88-.58,1.36,1.36,0,0,1-.36-.69,2.72,2.72,0,0,1-.07-.56V66.37a1.79,1.79,0,0,0-.27-1,1,1,0,0,0-.89-.42,1.33,1.33,0,0,0-.56.11,2.65,2.65,0,0,0-.51.34l-.42-.49a10.57,10.57,0,0,1,1-.74,8.14,8.14,0,0,1,1.21-.63,7.3,7.3,0,0,1,1.39-.45,6.62,6.62,0,0,1,1.57-.18,4.59,4.59,0,0,1,2,.34,2.57,2.57,0,0,1,1,.84,2.42,2.42,0,0,1,.4,1.07,7.65,7.65,0,0,1,.07,1Zm-6.62-23a2.25,2.25,0,0,1,.25-1,2.64,2.64,0,0,1,.68-.88,3.52,3.52,0,0,1,1-.58,3.48,3.48,0,0,1,1.26-.22,3.42,3.42,0,0,1,1.25.22,3.46,3.46,0,0,1,1,.58,2.75,2.75,0,0,1,.67.88,2.33,2.33,0,0,1,0,2.1,2.63,2.63,0,0,1-.67.85,3.25,3.25,0,0,1-1,.58,3.42,3.42,0,0,1-1.25.22,3.48,3.48,0,0,1-1.26-.22,3.3,3.3,0,0,1-1-.58,2.53,2.53,0,0,1-.68-.85A2.24,2.24,0,0,1,70.27,58.45Z"/><path class="cls-1" d="M88.11,64.49a3.35,3.35,0,0,0-.85.11,1.9,1.9,0,0,0-.71.39,1.64,1.64,0,0,0-.49.66,2.33,2.33,0,0,0-.18.95,2.55,2.55,0,0,0,.56,1.52,13.41,13.41,0,0,0,1.39,1.57q.83.81,1.8,1.68a19.49,19.49,0,0,1,1.8,1.84,10.28,10.28,0,0,1,1.39,2.07,5,5,0,0,1,.56,2.35,6.16,6.16,0,0,1-.48,2.5A5.13,5.13,0,0,1,91.53,82a6.25,6.25,0,0,1-2.15,1.16,9.22,9.22,0,0,1-2.81.4,7.28,7.28,0,0,1-2.45-.38,8.82,8.82,0,0,1-2-.94,8.52,8.52,0,0,1-1.46-1.18,8.22,8.22,0,0,1-.94-1.14l.69-.49A6.24,6.24,0,0,0,82,80.7a4.83,4.83,0,0,0,1,.48,3.34,3.34,0,0,0,1.12.19,3.75,3.75,0,0,0,2.31-.68,2.35,2.35,0,0,0,.9-2,2.9,2.9,0,0,0-.49-1.54,12.73,12.73,0,0,0-1.23-1.64c-.5-.56-1-1.14-1.61-1.74s-1.11-1.22-1.61-1.86a11.56,11.56,0,0,1-1.23-2,4.76,4.76,0,0,1-.49-2.11,4.5,4.5,0,0,1,.5-2.16,4.66,4.66,0,0,1,1.33-1.53,6.31,6.31,0,0,1,1.9-.91,8.13,8.13,0,0,1,2.21-.3,11.75,11.75,0,0,1,2.39.23,6.05,6.05,0,0,1,1.85.72A3.5,3.5,0,0,1,92,65.07a3.34,3.34,0,0,1,.42,1.69A1.86,1.86,0,0,1,92,68.05a1.71,1.71,0,0,1-1.37.55,2,2,0,0,1-1.28-.36,1.19,1.19,0,0,1-.44-1,1,1,0,0,1,.2-.65,1.83,1.83,0,0,1,.46-.38L90,66a.34.34,0,0,0,.21-.29,1,1,0,0,0-.59-.87A3,3,0,0,0,88.11,64.49Z"/><path class="cls-1" d="M103,64.6V79.08a2.07,2.07,0,0,0,.39,1.44,1.46,1.46,0,0,0,1.08.4,1.57,1.57,0,0,0,.94-.3,3.15,3.15,0,0,0,.7-.66,4.25,4.25,0,0,0,.61-1l.61.27c-.2.42-.43.88-.7,1.37A5.35,5.35,0,0,1,105.54,82a5.27,5.27,0,0,1-1.67,1.07,6.44,6.44,0,0,1-2.54.43,5.37,5.37,0,0,1-1.65-.25,3.94,3.94,0,0,1-1.41-.8,4.13,4.13,0,0,1-1-1.38,4.68,4.68,0,0,1-.37-2V64.6h-2.2V63.19a5.8,5.8,0,0,0,1.53-.28,7.91,7.91,0,0,0,2-.95,8.13,8.13,0,0,0,1.91-1.78,6.87,6.87,0,0,0,1.25-2.76H103v5.77h3.19c1,0,1.57-.17,1.57-.53a.26.26,0,0,0-.2-.26,4.58,4.58,0,0,1-.44-.18,1.43,1.43,0,0,1-.44-.3.9.9,0,0,1-.19-.65,1.11,1.11,0,0,1,.34-.86,1.33,1.33,0,0,1,2,.23,1.92,1.92,0,0,1,.26.56,2.16,2.16,0,0,1,.09.62,2.78,2.78,0,0,1-.74,2,3.18,3.18,0,0,1-2.36.75Z"/><path class="cls-1" d="M114.81,74.26a5.72,5.72,0,0,0,.18,1.36,9.15,9.15,0,0,0,.54,1.48,8.32,8.32,0,0,0,.87,1.42,6.81,6.81,0,0,0,1.2,1.2,5.54,5.54,0,0,0,1.5.85,5.23,5.23,0,0,0,1.8.31,4.65,4.65,0,0,0,1.27-.16,5,5,0,0,0,1.1-.43,7.39,7.39,0,0,0,1-.63c.31-.25.62-.5.94-.78l.49.47a12.6,12.6,0,0,1-1.16,1.33,9.13,9.13,0,0,1-1.7,1.36,9.62,9.62,0,0,1-2.33,1.06,10.11,10.11,0,0,1-3,.42,9.29,9.29,0,0,1-3.32-.61,8.52,8.52,0,0,1-2.87-1.85,9.17,9.17,0,0,1-2-3.08A12.38,12.38,0,0,1,109,70.4a10.28,10.28,0,0,1,1.23-2.68,9.61,9.61,0,0,1,1.8-2.1,11.32,11.32,0,0,1,2.16-1.5,11.59,11.59,0,0,1,2.32-.9,9.3,9.3,0,0,1,2.29-.3,9,9,0,0,1,2.52.31,5.62,5.62,0,0,1,1.79.84,3.53,3.53,0,0,1,1.07,1.23,3.11,3.11,0,0,1,.35,1.46,2.71,2.71,0,0,1-.53,1.65,4.9,4.9,0,0,1-1.41,1.29Zm3.94-4a3.05,3.05,0,0,0,.42-.3,1.28,1.28,0,0,0,.26-.35,2.06,2.06,0,0,0,.15-.51,5.26,5.26,0,0,0,0-.76,6.37,6.37,0,0,0-.11-1.08,4.26,4.26,0,0,0-.36-1.13,2.8,2.8,0,0,0-.65-.88,1.32,1.32,0,0,0-.94-.35,1.79,1.79,0,0,0-1.2.42,3.19,3.19,0,0,0-.83,1.09,7.22,7.22,0,0,0-.51,1.51c-.12.57-.21,1.14-.28,1.72a16,16,0,0,0-.12,1.65c0,.53,0,1,0,1.34Z"/><path class="cls-1" d="M134,81.53a2.43,2.43,0,0,1-.09.6,1.38,1.38,0,0,1-.41.67,2.59,2.59,0,0,1-.94.54,4.94,4.94,0,0,1-1.65.22,4.45,4.45,0,0,1-1.63-.24,2.39,2.39,0,0,1-.87-.58,1.42,1.42,0,0,1-.35-.69,2.72,2.72,0,0,1-.07-.56V56.22a1.87,1.87,0,0,0-.26-1,1,1,0,0,0-.9-.42,1.41,1.41,0,0,0-.57.11,2.29,2.29,0,0,0-.52.32l-.4-.47c.31-.25.64-.49,1-.73a7.3,7.3,0,0,1,1.21-.64,9.56,9.56,0,0,1,1.4-.45,6.69,6.69,0,0,1,1.57-.18,4.57,4.57,0,0,1,2,.35,2.57,2.57,0,0,1,1,.84,2.33,2.33,0,0,1,.4,1.06,7.4,7.4,0,0,1,.07,1Z"/><path class="cls-1" d="M144.62,64.53a4.84,4.84,0,0,0-1.24.15,5,5,0,0,0-1,.39,2.3,2.3,0,0,0-.64.52.86.86,0,0,0-.24.54.42.42,0,0,0,.31.42l.67.3a2.19,2.19,0,0,1,.68.47,1.27,1.27,0,0,1,.3.93,1.59,1.59,0,0,1-.17.75,2.05,2.05,0,0,1-.45.61,2.23,2.23,0,0,1-.66.41,2.18,2.18,0,0,1-.8.15,2.27,2.27,0,0,1-1.77-.75,2.81,2.81,0,0,1-.67-2,3.34,3.34,0,0,1,.62-2,4.87,4.87,0,0,1,1.64-1.4,8.2,8.2,0,0,1,2.28-.82,13,13,0,0,1,2.55-.26,12.54,12.54,0,0,1,2.91.33,7.4,7.4,0,0,1,2.46,1.06,5.58,5.58,0,0,1,1.71,1.84,5.44,5.44,0,0,1,.63,2.7V79.92c0,.12,0,.25,0,.39a1.48,1.48,0,0,0,.1.39.7.7,0,0,0,.24.3.71.71,0,0,0,.45.11,1,1,0,0,0,.65-.26,6.87,6.87,0,0,0,.54-.54l.49.41c-.2.28-.43.58-.71.9a5.16,5.16,0,0,1-1,.92,5.81,5.81,0,0,1-1.38.73,5.15,5.15,0,0,1-1.78.29,3.5,3.5,0,0,1-2.19-.73A3.55,3.55,0,0,1,148,80.57,8.56,8.56,0,0,1,146.64,82a7.71,7.71,0,0,1-1.38.92,6.54,6.54,0,0,1-1.42.51,6.9,6.9,0,0,1-1.44.15,5.92,5.92,0,0,1-1.82-.29,4.39,4.39,0,0,1-1.57-.93,4.55,4.55,0,0,1-1.12-1.66,6.53,6.53,0,0,1-.42-2.48,5.44,5.44,0,0,1,.7-2.92A6.24,6.24,0,0,1,140,73.37a12.27,12.27,0,0,1,2.61-1.32c1-.37,2-.75,3-1.16a3.24,3.24,0,0,0,1.65-1.34,3.56,3.56,0,0,0,.52-1.83,3.16,3.16,0,0,0-.85-2.32A3.1,3.1,0,0,0,144.62,64.53Zm3.11,8.57a.9.9,0,0,0-.31-.74,1.25,1.25,0,0,0-.81-.26,2.84,2.84,0,0,0-1.3.32,3.25,3.25,0,0,0-1.09.92,4.57,4.57,0,0,0-.74,1.5,7.1,7.1,0,0,0-.27,2.06,8.89,8.89,0,0,0,.16,1.88,3.7,3.7,0,0,0,.45,1.19,1.68,1.68,0,0,0,.66.62,1.89,1.89,0,0,0,1.74-.09,3,3,0,0,0,.79-.68,3.32,3.32,0,0,0,.52-.92,2.85,2.85,0,0,0,.2-1Z"/><path class="cls-1" d="M135.25,92.22a3.87,3.87,0,0,0,.34-.55,1.23,1.23,0,0,0,.15-.55c0-.25-.2-.42-.59-.53a10.07,10.07,0,0,0-2.17-.16,4.75,4.75,0,0,0-1.63.24,3.86,3.86,0,0,0-1.07.58,3.4,3.4,0,0,0-.68.75c-.18.28-.33.53-.46.76a5.11,5.11,0,0,1-.38.57.6.6,0,0,1-.48.24.82.82,0,0,1-.58-.22,1.59,1.59,0,0,1-.4-.54,3,3,0,0,1-.24-.7,3.89,3.89,0,0,1-.08-.74,1.33,1.33,0,0,1,.46-1,3.66,3.66,0,0,1,1.31-.78,11.14,11.14,0,0,1,2.1-.51,20.1,20.1,0,0,1,2.85-.18,34.51,34.51,0,0,1,4.24.21,11.83,11.83,0,0,1,2.56.58,2.55,2.55,0,0,1,1.25.87,2,2,0,0,1,.33,1.1,1.84,1.84,0,0,1-.14.69,6.27,6.27,0,0,1-.35.74c-.14.23-.28.45-.42.65a5.06,5.06,0,0,1-.3.44l-8.15,12.48-.18.3a.82.82,0,0,0-.13.46.41.41,0,0,0,.11.28.82.82,0,0,0,.41.19,4,4,0,0,0,.87.11c.38,0,.88,0,1.49,0a6.37,6.37,0,0,0,2-.25,4.14,4.14,0,0,0,1.26-.65,3.54,3.54,0,0,0,.78-.83c.2-.3.37-.57.51-.83a5.29,5.29,0,0,1,.42-.65.67.67,0,0,1,.54-.26.83.83,0,0,1,.59.25,2.07,2.07,0,0,1,.43.62,3.27,3.27,0,0,1,.27.8,4.69,4.69,0,0,1,.08.78,1.34,1.34,0,0,1-.47,1,3.87,3.87,0,0,1-1.43.81,12.77,12.77,0,0,1-2.43.53,27.24,27.24,0,0,1-3.5.2,32.29,32.29,0,0,1-3.7-.18,11,11,0,0,1-2.49-.52,3,3,0,0,1-1.39-.87,1.86,1.86,0,0,1-.43-1.23,2.7,2.7,0,0,1,.26-1.13,9.37,9.37,0,0,1,.78-1.28Z"/><path class="cls-1" d="M150.37,100.27a5.35,5.35,0,0,0,.19,1.36,8.24,8.24,0,0,0,.53,1.48,8.14,8.14,0,0,0,.88,1.42,6.44,6.44,0,0,0,1.19,1.2,5.79,5.79,0,0,0,1.5.84,5,5,0,0,0,1.8.32,5.07,5.07,0,0,0,1.27-.16,4.84,4.84,0,0,0,1.1-.43,6.87,6.87,0,0,0,1-.64c.31-.24.63-.5.94-.77l.49.47a13.69,13.69,0,0,1-1.16,1.33,9.21,9.21,0,0,1-1.7,1.36,9.62,9.62,0,0,1-2.33,1.06,10.11,10.11,0,0,1-3,.42,9.3,9.3,0,0,1-3.32-.62,8.37,8.37,0,0,1-2.87-1.85,9.13,9.13,0,0,1-2-3.07,12.38,12.38,0,0,1-.31-7.58,10.28,10.28,0,0,1,1.23-2.68,9.61,9.61,0,0,1,1.8-2.1,11.32,11.32,0,0,1,2.16-1.5,10.5,10.5,0,0,1,2.32-.9,9.36,9.36,0,0,1,2.29-.3,9,9,0,0,1,2.52.31,5.62,5.62,0,0,1,1.79.84,3.36,3.36,0,0,1,1.07,1.23,3.11,3.11,0,0,1,.35,1.46,2.77,2.77,0,0,1-.52,1.65,5,5,0,0,1-1.41,1.28Zm3.94-4a3.31,3.31,0,0,0,.42-.3,1,1,0,0,0,.26-.36,1.56,1.56,0,0,0,.15-.5,5.36,5.36,0,0,0,.05-.76,6.38,6.38,0,0,0-.11-1.09,4.31,4.31,0,0,0-.36-1.12,2.8,2.8,0,0,0-.65-.88,1.33,1.33,0,0,0-.94-.36,1.79,1.79,0,0,0-1.2.42,3.39,3.39,0,0,0-.83,1.09,7.52,7.52,0,0,0-.51,1.52c-.12.57-.21,1.14-.28,1.71s-.1,1.13-.12,1.66,0,1,0,1.34Z"/><path class="cls-1" d="M169.54,107.53a2.57,2.57,0,0,1-.09.61,1.35,1.35,0,0,1-.41.67,2.74,2.74,0,0,1-.94.53,4.91,4.91,0,0,1-1.65.23,4.22,4.22,0,0,1-1.63-.25,2.27,2.27,0,0,1-.87-.57,1.46,1.46,0,0,1-.35-.69,2.73,2.73,0,0,1-.07-.57V82.23a1.87,1.87,0,0,0-.26-1,1,1,0,0,0-.89-.42,1.28,1.28,0,0,0-.58.11,2.29,2.29,0,0,0-.52.32l-.39-.47a12.38,12.38,0,0,1,1-.74,6.79,6.79,0,0,1,1.2-.63,9.56,9.56,0,0,1,1.4-.45,6.69,6.69,0,0,1,1.57-.18,4.8,4.8,0,0,1,2,.34,2.54,2.54,0,0,1,1,.85,2.34,2.34,0,0,1,.4,1,7.63,7.63,0,0,1,.07,1Z"/><path class="cls-1" d="M180.53,107.53a2.57,2.57,0,0,1-.09.61,1.42,1.42,0,0,1-.41.67,2.74,2.74,0,0,1-.94.53,4.91,4.91,0,0,1-1.65.23,4.19,4.19,0,0,1-1.63-.25,2.27,2.27,0,0,1-.87-.57,1.46,1.46,0,0,1-.35-.69,2.73,2.73,0,0,1-.07-.57V82.23a1.79,1.79,0,0,0-.27-1,1,1,0,0,0-.89-.42,1.34,1.34,0,0,0-.58.11,2.48,2.48,0,0,0-.51.32l-.4-.47c.3-.25.64-.49,1-.74a7.26,7.26,0,0,1,1.21-.63,9.19,9.19,0,0,1,1.4-.45,6.6,6.6,0,0,1,1.56-.18,4.76,4.76,0,0,1,2,.34,2.51,2.51,0,0,1,1,.85,2.34,2.34,0,0,1,.4,1,7.63,7.63,0,0,1,.07,1Z"/><path class="cls-2" d="M220.15,20.23A55,55,0,0,1,202.9,34.77l-1.41.75s7-7.74,5.44-6.94c-.93.48-9.7,6.32-17.16,10.38-1.12.61,5.36-5.75,4.32-5.16-3.26,1.85-13.42,8.93-14.59,10-4,3.57-6.59,5.34-9.33,10.54a20.58,20.58,0,0,0-2.23,3.74c-1.48,2.9-4.16,7-3.73,13.7,0,.1,0,.19,0,0a9.7,9.7,0,0,1,1.47-4.06c2.11-3.18,6.4-11.85,24.35-23.13C201.39,37.44,217.42,35.45,220.15,20.23Z"/><path class="cls-3" d="M165.77,68c2.1-3.18,7.7-12.73,24.36-23.13,11.33-7.07,27.33-9.1,30.07-24.31,0,0,1.66,10.94-7,15.91a93.33,93.33,0,0,1-14.34,6.91s7-1.94,8.72-2.79-5,8.25-10.35,10.06a82.45,82.45,0,0,1-10.47,2.72s4.34-.11,6-.81-8.15,7-13.68,7.32S165.77,68,165.77,68Z"/><path class="cls-4" d="M135.93,0a55.19,55.19,0,0,0,8.76,20.79l.92,1.31s-2.68-10.06-1.7-8.66c.61.86,5.78,10,10.57,17,.73,1.06-2.16-7.55-1.5-6.56,2.07,3.13,7.9,14,8.47,15.51,1.94,5,3.49,7.49,3.57,13.37a17.76,17.76,0,0,1,.56,5c0,3.29.28,7.71-3.28,13.6,0,0-.06.1,0,0a9.78,9.78,0,0,0,.58-4.42c-.43-3.78-.32-13.46-11.19-31.67C144.83,23.86,131.45,14.8,135.93,0Z"/><path class="cls-5" d="M162.68,67.25c-.43-3.79-1.08-14.84-11.19-31.67C144.61,24.14,131.27,15.06,135.74.26c0,0-6.45,9-1,17.38a93.6,93.6,0,0,0,9.63,12.66s-5.36-4.91-6.5-6.44.72,9.62,4.65,13.66a83,83,0,0,0,8.09,7.18s-3.81-2.07-4.95-3.43,4.07,10,8.87,12.73S162.68,67.25,162.68,67.25Z"/><path class="cls-6" d="M163.68,51.75a4.29,4.29,0,1,1,8.34,2c-.35,1.44-2.91,5.08-4.79,7.63-1.13,1.53-1.91,2.71-2.1,2.66a16.18,16.18,0,0,1-.65-3.33C164,57.59,163.32,53.21,163.68,51.75Z"/><path class="cls-7" d="M165,64.79l2.27-3.4a7.79,7.79,0,0,1-1.45,0,8.08,8.08,0,0,1-1.3-.62Z"/><path class="cls-8" d="M163.45,117.61h2.65a2,2,0,1,1,0,4h-1.83v2.62h-.82Zm2.55.74h-1.73v2.51H166a1.26,1.26,0,1,0,0-2.51Z"/><path class="cls-8" d="M172.73,121.07c0-.84-.44-1.09-1.08-1.09a1.9,1.9,0,0,0-1.42.74v3.5h-.74v-6.61h.74v2.52a2.37,2.37,0,0,1,1.72-.81,1.34,1.34,0,0,1,1.52,1.52v3.38h-.74Z"/><path class="cls-8" d="M175.24,117.61h2.26a3.31,3.31,0,1,1,0,6.61h-2.26Zm2.26,5.88a2.57,2.57,0,0,0,0-5.14h-1.43v5.14Z"/><path class="cls-8" d="M182,125.17a1.5,1.5,0,0,0,.64-.92l-.14,0a.47.47,0,0,1-.47-.51.52.52,0,0,1,.52-.53.67.67,0,0,1,.62.75,1.9,1.9,0,0,1-.81,1.5Z"/><path class="cls-8" d="M187.51,117.61h.82v5.88h3.07v.73h-3.89Z"/><path class="cls-8" d="M198.46,118.72l-2.25,5.5h-.33l-2.24-5.5v5.5h-.82v-6.61H194l2.05,5,2.06-5h1.17v6.61h-.82Z"/><path class="cls-8" d="M201.18,122.66a2.76,2.76,0,0,0,2.08,1c1.17,0,1.55-.64,1.55-1.14,0-.8-.8-1-1.67-1.25-1.06-.28-2.24-.58-2.24-1.87,0-1.09,1-1.83,2.27-1.83a3.06,3.06,0,0,1,2.34.92l-.49.6a2.55,2.55,0,0,0-1.91-.79c-.8,0-1.36.42-1.36,1s.76.86,1.6,1.09c1.08.28,2.31.62,2.31,2,0,1-.65,1.94-2.43,1.94a3.3,3.3,0,0,1-2.54-1Z"/><path class="cls-8" d="M210.74,118.89l-1.46,5.33h-.89l-1.88-6.61h.91l1.47,5.51,1.51-5.51h.69l1.51,5.51,1.46-5.51H215l-1.88,6.61h-.89Z"/><path class="cls-9" d="M141.19,136.94A62.08,62.08,0,0,1,80.47,87.78a.25.25,0,1,1,.49-.1,61.59,61.59,0,0,0,93.88,38.76.25.25,0,0,1,.34.08.24.24,0,0,1-.07.34A61.77,61.77,0,0,1,141.19,136.94Z"/><path class="cls-10" d="M188.89,114.45a.25.25,0,0,1-.16-.06.25.25,0,0,1,0-.35,61.64,61.64,0,0,0,10.43-60,.26.26,0,0,1,.15-.32.25.25,0,0,1,.32.16,62.11,62.11,0,0,1-10.52,60.51A.25.25,0,0,1,188.89,114.45Z"/><path class="cls-11" d="M187,33.56a.24.24,0,0,1-.19-.08,61.38,61.38,0,0,0-39.27-19.85.26.26,0,0,1-.23-.28.24.24,0,0,1,.28-.22,61.92,61.92,0,0,1,39.59,20,.25.25,0,0,1,0,.36A.27.27,0,0,1,187,33.56Z"/><path class="cls-12" d="M81.88,57.66h-.07a.24.24,0,0,1-.17-.31A62.13,62.13,0,0,1,129.57,13.9a.25.25,0,0,1,.3.2.26.26,0,0,1-.2.29A61.65,61.65,0,0,0,82.12,57.48.26.26,0,0,1,81.88,57.66Z"/></g></g></svg>