<svg xmlns="http://www.w3.org/2000/svg" xmlns:xlink="http://www.w3.org/1999/xlink" viewBox="0 0 362.38 224.46"><defs><style>.cls-1{fill:#019682;}.cls-2{fill:#010101;}.cls-3{fill:url(#linear-gradient);}.cls-4{fill:url(#linear-gradient-2);}.cls-5{fill:url(#linear-gradient-3);}.cls-6{fill:url(#linear-gradient-4);}.cls-7{fill:url(#radial-gradient);}.cls-8{fill:url(#linear-gradient-5);}.cls-9{fill:url(#linear-gradient-6);}.cls-10{fill:url(#linear-gradient-7);}.cls-11{fill:url(#linear-gradient-8);}</style><linearGradient id="linear-gradient" x1="-942.48" y1="686.87" x2="-867.07" y2="751.04" gradientTransform="matrix(-0.88, 0.47, 0.47, 0.88, -820.66, -137.72)" gradientUnits="userSpaceOnUse"><stop offset="0.05" stop-color="#bbd132"/><stop offset="0.1" stop-color="#98ca4e"/><stop offset="0.15" stop-color="#74c36b"/><stop offset="0.21" stop-color="#5bbd80"/><stop offset="0.25" stop-color="#4bba8d"/><stop offset="0.29" stop-color="#46b991"/><stop offset="0.34" stop-color="#2eb592"/><stop offset="0.41" stop-color="#15b093"/><stop offset="0.48" stop-color="#05ad94"/><stop offset="0.53" stop-color="#00ac94"/><stop offset="0.54" stop-color="#00ab93"/><stop offset="0.68" stop-color="#019b86"/><stop offset="0.8" stop-color="#019682"/><stop offset="0.87" stop-color="#017f78"/><stop offset="0.94" stop-color="#016f71"/><stop offset="1" stop-color="#016a6f"/></linearGradient><linearGradient id="linear-gradient-2" x1="-943.74" y1="690.2" x2="-853.11" y2="767.32" xlink:href="#linear-gradient"/><linearGradient id="linear-gradient-3" x1="-633.84" y1="414.6" x2="-558.34" y2="478.84" gradientTransform="matrix(0.57, 0.82, -0.82, 0.57, 955.74, 288.98)" xlink:href="#linear-gradient"/><linearGradient id="linear-gradient-4" x1="-635.23" y1="418.08" x2="-544.6" y2="495.2" gradientTransform="matrix(0.57, 0.82, -0.82, 0.57, 955.74, 288.98)" xlink:href="#linear-gradient"/><radialGradient id="radial-gradient" cx="199.7" cy="67.56" r="27.58" gradientTransform="translate(100.62 -33.04) rotate(13.51)" gradientUnits="userSpaceOnUse"><stop offset="0.29" stop-color="#019682"/><stop offset="0.4" stop-color="#028c79"/><stop offset="0.62" stop-color="#037c6b"/><stop offset="0.8" stop-color="#047766"/></radialGradient><linearGradient id="linear-gradient-5" x1="714.07" y1="170.76" x2="714.21" y2="177.43" gradientTransform="matrix(-0.97, -0.23, 0.23, -0.97, 926.16, 439.63)" gradientUnits="userSpaceOnUse"><stop offset="0.1" stop-color="#d3a92a"/><stop offset="0.14" stop-color="#d3a42a"/><stop offset="0.39" stop-color="#d08b29"/><stop offset="0.61" stop-color="#cf7b29"/><stop offset="0.8" stop-color="#ce7629"/></linearGradient><linearGradient id="linear-gradient-6" x1="133.97" y1="56.66" x2="213.66" y2="56.66" gradientUnits="userSpaceOnUse"><stop offset="0.01" stop-color="#e9be7b"/><stop offset="0.2" stop-color="#e0b16a"/><stop offset="0.59" stop-color="#c88f3d"/><stop offset="0.73" stop-color="#be812b"/><stop offset="0.95" stop-color="#e8bc7f"/></linearGradient><linearGradient id="linear-gradient-7" x1="142.52" y1="155.99" x2="333.01" y2="155.99" xlink:href="#linear-gradient-6"/><linearGradient id="linear-gradient-8" x1="241.99" y1="38.2" x2="307.47" y2="38.2" xlink:href="#linear-gradient-6"/></defs><g id="Layer_2" data-name="Layer 2"><g id="Layer_1-2" data-name="Layer 1"><path class="cls-1" d="M14,153.43h1.31V164H14Z"/><path class="cls-1" d="M19.59,155.47V164H18.28V153.43h1.34l6.09,8.35v-8.35H27V164H25.76Z"/><path class="cls-1" d="M32.63,154.6H29.28v-1.17h8v1.17H33.94V164H32.63Z"/><path class="cls-1" d="M39.56,153.43h6.93v1.17H40.87V158h5.51v1.17H40.87v3.65h5.62V164H39.56Z"/><path class="cls-1" d="M54.1,153.25a5.05,5.05,0,0,1,4.11,2l-1.05.65a3.89,3.89,0,0,0-3.06-1.46,4.31,4.31,0,0,0,0,8.61,4.2,4.2,0,0,0,2.84-1.14v-2.16H53.31v-1.17h4.94v3.82a5.5,5.5,0,0,1-4.15,1.82,5.48,5.48,0,0,1,0-11Z"/><path class="cls-1" d="M64.33,159.8H62.22V164H60.91V153.43h4.24a3.08,3.08,0,0,1,3.32,3.19,2.92,2.92,0,0,1-2.75,3.07L68.58,164H67Zm.67-5.2H62.22v4.05H65a2,2,0,1,0,0-4.05Z"/><path class="cls-1" d="M77.71,161.66H72.35L71.42,164H70l4.25-10.57h1.63L80.11,164H78.65Zm-5-1.18h4.58L75,154.6Z"/><path class="cls-1" d="M83.55,154.6H80.21v-1.17h8v1.17H84.87V164H83.55Z"/><path class="cls-1" d="M90.48,153.43H91.8V164H90.48Z"/><path class="cls-1" d="M93.69,153.43h1.5l3.57,9.13,3.57-9.13h1.5L99.57,164H97.94Z"/><path class="cls-1" d="M105.72,153.43h6.93v1.17H107V158h5.5v1.17H107v3.65h5.61V164h-6.93Z"/><path class="cls-1" d="M122.47,154.6h-3.34v-1.17h8v1.17h-3.36V164h-1.32Z"/><path class="cls-1" d="M136.9,159.15h-6.18V164H129.4V153.43h1.32V158h6.18v-4.55h1.32V164H136.9Z"/><path class="cls-1" d="M141.2,153.43h6.93v1.17h-5.61V158H148v1.17h-5.5v3.65h5.61V164H141.2Z"/><path class="cls-1" d="M154.16,159.8h-2.11V164h-1.32V153.43H155a3.08,3.08,0,0,1,3.31,3.19,2.92,2.92,0,0,1-2.74,3.07l2.86,4.31h-1.56Zm.66-5.2h-2.77v4.05h2.77a2,2,0,1,0,0-4.05Z"/><path class="cls-1" d="M167.54,161.66h-5.36l-.93,2.34h-1.46L164,153.43h1.63L169.93,164h-1.45Zm-5-1.18h4.58l-2.28-5.88Z"/><path class="cls-1" d="M171.83,153.43h4.24a3.19,3.19,0,1,1,0,6.37h-2.93V164h-1.31Zm4.09,1.17h-2.78v4h2.78a2,2,0,1,0,0-4Z"/><path class="cls-1" d="M184.67,159.53l-4.17-6.1H182l3.28,4.91,3.28-4.91h1.54l-4.15,6.1V164h-1.32Z"/><path class="cls-2" d="M31.27,133.23a4.34,4.34,0,0,1-.13,1,2.21,2.21,0,0,1-.62,1.09,3.94,3.94,0,0,1-1.49.88,7.83,7.83,0,0,1-2.69.37,7.15,7.15,0,0,1-2.67-.4,4.1,4.1,0,0,1-1.47-.94,2.6,2.6,0,0,1-.63-1.12,5.07,5.07,0,0,1-.13-.93V110.54a3.61,3.61,0,0,0-.12-.91,3.13,3.13,0,0,0-.39-.85,2.14,2.14,0,0,0-.64-.63,1.71,1.71,0,0,0-.89-.23,3.27,3.27,0,0,0-1.7.49,9.67,9.67,0,0,0-1.55,1.14,10.68,10.68,0,0,0-1.25,1.28q-.53.63-.75,1v21.44a5,5,0,0,1-.13,1,2.29,2.29,0,0,1-.62,1.09,4.05,4.05,0,0,1-1.48.88,7.67,7.67,0,0,1-2.67.37,7.15,7.15,0,0,1-2.67-.4,4.29,4.29,0,0,1-1.49-.94,2.44,2.44,0,0,1-.64-1.12,4.32,4.32,0,0,1-.13-.93V108.46a3,3,0,0,0-.43-1.62,1.58,1.58,0,0,0-1.46-.69,2.06,2.06,0,0,0-.93.2,5,5,0,0,0-.83.54l-.67-.8a19.65,19.65,0,0,1,1.65-1.2,13.12,13.12,0,0,1,2-1,14.73,14.73,0,0,1,2.27-.74,11.16,11.16,0,0,1,2.56-.28,6.42,6.42,0,0,1,3.23.68,4.58,4.58,0,0,1,1.7,1.65,5.3,5.3,0,0,1,.66,2c.07.7.11,1.28.11,1.75a23.68,23.68,0,0,1,3.23-3,17,17,0,0,1,3.3-2.1,10,10,0,0,1,1.85-.69,7.44,7.44,0,0,1,1.92-.25,6.74,6.74,0,0,1,5.29,2.28,6.35,6.35,0,0,1,1.16,2,5.44,5.44,0,0,1,.37,1.81,27,27,0,0,1,3.23-3A17,17,0,0,1,36,104.75a14.12,14.12,0,0,1,1.74-1,11,11,0,0,1,1.86-.69,7.31,7.31,0,0,1,1.91-.25,6.83,6.83,0,0,1,3.16.68,6.05,6.05,0,0,1,2.12,1.81A7.6,7.6,0,0,1,48,107.85a10.92,10.92,0,0,1,.37,2.82v19.81c0,.19,0,.4,0,.62a2.24,2.24,0,0,0,.17.64,1.07,1.07,0,0,0,.39.5,1.26,1.26,0,0,0,.73.19,1.56,1.56,0,0,0,1.08-.43c.32-.29.62-.58.9-.88l.77.67a13.08,13.08,0,0,1-1.19,1.49,11.54,11.54,0,0,1-1.74,1.55,10,10,0,0,1-2.34,1.24,8.49,8.49,0,0,1-3,.49,7.22,7.22,0,0,1-2.45-.37,5.27,5.27,0,0,1-1.76-1,3.93,3.93,0,0,1-1.07-1.47,4.6,4.6,0,0,1-.35-1.81V110.54a3.63,3.63,0,0,0-.13-.91,3.42,3.42,0,0,0-.37-.85,2.07,2.07,0,0,0-.62-.63,1.77,1.77,0,0,0-.9-.23,3.33,3.33,0,0,0-1.71.49,9.4,9.4,0,0,0-1.57,1.14A9.74,9.74,0,0,0,32,110.83c-.34.42-.59.74-.74,1Z"/><path class="cls-2" d="M66.09,105.45a7.58,7.58,0,0,0-2,.26,6.76,6.76,0,0,0-1.6.64,3.89,3.89,0,0,0-1.06.84,1.4,1.4,0,0,0-.38.88.7.7,0,0,0,.49.69l1.11.48a3.91,3.91,0,0,1,1.1.77,2.08,2.08,0,0,1,.5,1.52,2.77,2.77,0,0,1-.27,1.23,3.32,3.32,0,0,1-1.83,1.67,3.56,3.56,0,0,1-1.29.24,3.72,3.72,0,0,1-2.9-1.22,4.61,4.61,0,0,1-1.11-3.23,5.42,5.42,0,0,1,1-3.34,7.86,7.86,0,0,1,2.67-2.29,13.48,13.48,0,0,1,3.73-1.33,20.26,20.26,0,0,1,4.16-.43,20.57,20.57,0,0,1,4.77.54,12.06,12.06,0,0,1,4,1.73,8.9,8.9,0,0,1,2.78,3,8.8,8.8,0,0,1,1,4.41v18.09c0,.19,0,.4,0,.64a2.15,2.15,0,0,0,.16.64,1.29,1.29,0,0,0,.39.48,1.18,1.18,0,0,0,.73.19,1.62,1.62,0,0,0,1.08-.43,9.13,9.13,0,0,0,.88-.88l.8.67c-.32.45-.71.94-1.16,1.47a8.81,8.81,0,0,1-1.63,1.51,9.3,9.3,0,0,1-2.24,1.18,8.22,8.22,0,0,1-2.91.48,5.51,5.51,0,0,1-5.63-4.9A14.15,14.15,0,0,1,69.41,134a11.36,11.36,0,0,1-2.26,1.5,10.14,10.14,0,0,1-2.32.84,11,11,0,0,1-2.35.25,9.35,9.35,0,0,1-3-.48,7.19,7.19,0,0,1-2.58-1.52,7.51,7.51,0,0,1-1.82-2.7,10.65,10.65,0,0,1-.69-4.07A9,9,0,0,1,55.56,123a10.24,10.24,0,0,1,3-3.12,20.72,20.72,0,0,1,4.26-2.16q2.37-.9,4.88-1.89a5.21,5.21,0,0,0,2.7-2.19,5.83,5.83,0,0,0,.85-3,5.2,5.2,0,0,0-1.39-3.79A5.08,5.08,0,0,0,66.09,105.45Zm5.09,14a1.49,1.49,0,0,0-.51-1.22,2.05,2.05,0,0,0-1.31-.41,4.64,4.64,0,0,0-2.13.51,5.35,5.35,0,0,0-1.78,1.5,7.79,7.79,0,0,0-1.21,2.45,11.48,11.48,0,0,0-.45,3.38,14.49,14.49,0,0,0,.27,3.07,6,6,0,0,0,.74,1.94,2.69,2.69,0,0,0,1.07,1,3,3,0,0,0,1.28.28,3,3,0,0,0,1.57-.43,4.65,4.65,0,0,0,1.28-1.1,5.48,5.48,0,0,0,.86-1.51,4.45,4.45,0,0,0,.32-1.66Z"/><path class="cls-2" d="M99.25,109.58a25.76,25.76,0,0,1,2.6-3.36c.38-.43.8-.84,1.24-1.25a12.88,12.88,0,0,1,1.4-1.09,7.73,7.73,0,0,1,1.48-.77,4.44,4.44,0,0,1,1.54-.28,3.36,3.36,0,0,1,2.56,1,3.82,3.82,0,0,1,.93,2.74,11.86,11.86,0,0,1-.18,2.09,14.57,14.57,0,0,1-.68,2.45h-.9a2.93,2.93,0,0,0-.9-1.64,2.88,2.88,0,0,0-2-.66,5.33,5.33,0,0,0-2,.37,11.93,11.93,0,0,0-1.87.91,17.55,17.55,0,0,0-1.73,1.18c-.54.43-1,.84-1.49,1.22v20.77a4.9,4.9,0,0,1-.12,1,2.31,2.31,0,0,1-.63,1.09,3.92,3.92,0,0,1-1.47.88,7.67,7.67,0,0,1-2.67.37,7.2,7.2,0,0,1-2.68-.4,4.24,4.24,0,0,1-1.48-.94,2.35,2.35,0,0,1-.64-1.12,4.32,4.32,0,0,1-.13-.93V108.46a3.06,3.06,0,0,0-.43-1.62,1.59,1.59,0,0,0-1.46-.69,2.06,2.06,0,0,0-.93.2,5,5,0,0,0-.83.54l-.67-.8a19.65,19.65,0,0,1,1.65-1.2,13,13,0,0,1,2-1,14.86,14.86,0,0,1,2.28-.74,11.16,11.16,0,0,1,2.56-.28,6.83,6.83,0,0,1,2.35.36,4.9,4.9,0,0,1,1.6,1,4.62,4.62,0,0,1,1,1.33A7.14,7.14,0,0,1,99,107a7.59,7.59,0,0,1,.21,1.44Q99.25,109.1,99.25,109.58Z"/><path class="cls-2" d="M125.66,133.17a4.74,4.74,0,0,1-.14,1,2.39,2.39,0,0,1-.68,1.12,4.13,4.13,0,0,1-1.52.89,7.79,7.79,0,0,1-2.69.37,7,7,0,0,1-2.65-.4,4,4,0,0,1-1.44-.94,2.4,2.4,0,0,1-.59-1.12,4.9,4.9,0,0,1-.12-.93V108.46a3,3,0,0,0-.43-1.62,1.58,1.58,0,0,0-1.45-.69,2,2,0,0,0-.93.2,4.31,4.31,0,0,0-.83.54l-.68-.8a19.65,19.65,0,0,1,1.65-1.2,13.62,13.62,0,0,1,2-1,14.73,14.73,0,0,1,2.27-.74,11.22,11.22,0,0,1,2.56-.28,7.48,7.48,0,0,1,3.24.56,3.87,3.87,0,0,1,2.35,3.12,14.83,14.83,0,0,1,.11,1.63ZM114.84,95.53a3.9,3.9,0,0,1,.4-1.71,4.42,4.42,0,0,1,1.12-1.43,5.83,5.83,0,0,1,1.67-1,5.94,5.94,0,0,1,2.06-.35,5.85,5.85,0,0,1,2,.35,5.59,5.59,0,0,1,1.65,1,4.53,4.53,0,0,1,1.11,1.43,3.9,3.9,0,0,1,0,3.44,4.49,4.49,0,0,1-1.11,1.39,5.55,5.55,0,0,1-1.65.94,5.62,5.62,0,0,1-2,.35,5.71,5.71,0,0,1-2.06-.35,5.78,5.78,0,0,1-1.67-.94,4.38,4.38,0,0,1-1.12-1.39A3.92,3.92,0,0,1,114.84,95.53Z"/><path class="cls-2" d="M144,105.39a4.81,4.81,0,0,0-1.39.19,3.14,3.14,0,0,0-1.17.62,2.94,2.94,0,0,0-.8,1.09,3.9,3.9,0,0,0-.29,1.55,4.13,4.13,0,0,0,.91,2.48,20.51,20.51,0,0,0,2.28,2.56q1.35,1.34,2.94,2.76a30.88,30.88,0,0,1,2.94,3A16.94,16.94,0,0,1,151.7,123a8.35,8.35,0,0,1,.91,3.84,10.16,10.16,0,0,1-.78,4.1,8.42,8.42,0,0,1-2.25,3,10,10,0,0,1-3.52,1.91,15.28,15.28,0,0,1-4.59.65,12.25,12.25,0,0,1-4-.62,14.54,14.54,0,0,1-3.19-1.54,13.91,13.91,0,0,1-2.38-1.94,13.74,13.74,0,0,1-1.54-1.85l1.12-.8a11.76,11.76,0,0,0,1.06,1,10.51,10.51,0,0,0,1.43,1,8.21,8.21,0,0,0,1.67.78,5.5,5.5,0,0,0,1.83.31,6.12,6.12,0,0,0,3.78-1.11,3.84,3.84,0,0,0,1.47-3.28,4.8,4.8,0,0,0-.8-2.51,20.17,20.17,0,0,0-2-2.67c-.81-.92-1.68-1.87-2.62-2.85a39.18,39.18,0,0,1-2.63-3,18,18,0,0,1-2-3.24,7.79,7.79,0,0,1-.8-3.45,7.29,7.29,0,0,1,.81-3.52,7.41,7.41,0,0,1,2.18-2.5,9.79,9.79,0,0,1,3.1-1.49,13.19,13.19,0,0,1,3.6-.49,18.14,18.14,0,0,1,3.91.38,9.71,9.71,0,0,1,3,1.17,5.6,5.6,0,0,1,2,2,5.34,5.34,0,0,1,.68,2.75,3,3,0,0,1-.8,2.11,2.84,2.84,0,0,1-2.24.9,3.25,3.25,0,0,1-2.09-.59,2,2,0,0,1-.72-1.62,1.58,1.58,0,0,1,.33-1.06,3.18,3.18,0,0,1,.76-.62l.75-.42a.51.51,0,0,0,.33-.46,1.61,1.61,0,0,0-1-1.43A5.1,5.1,0,0,0,144,105.39Z"/><path class="cls-2" d="M168.29,105.58v23.65a3.37,3.37,0,0,0,.64,2.35,2.35,2.35,0,0,0,1.76.66,2.58,2.58,0,0,0,1.54-.48,5.44,5.44,0,0,0,1.15-1.09,6.36,6.36,0,0,0,1-1.57l1,.45c-.32.69-.7,1.43-1.14,2.24a8.89,8.89,0,0,1-4.48,4,10.59,10.59,0,0,1-4.15.71,8.71,8.71,0,0,1-2.7-.42,6.32,6.32,0,0,1-3.92-3.55,7.76,7.76,0,0,1-.61-3.23V105.58h-3.58v-2.31a9.62,9.62,0,0,0,2.49-.46,12.6,12.6,0,0,0,3.28-1.55,13.1,13.1,0,0,0,3.12-2.92,11,11,0,0,0,2-4.51h2.56v9.44h5.22c1.71,0,2.56-.28,2.56-.86a.43.43,0,0,0-.32-.43c-.21-.08-.45-.17-.72-.29a2.22,2.22,0,0,1-.72-.5,1.45,1.45,0,0,1-.32-1,1.82,1.82,0,0,1,.56-1.41,2.08,2.08,0,0,1,1.46-.51,2,2,0,0,1,1,.24,2.11,2.11,0,0,1,.72.64,2.75,2.75,0,0,1,.44.91,4,4,0,0,1,.14,1,4.57,4.57,0,0,1-1.2,3.32,5.21,5.21,0,0,1-3.86,1.23Z"/><path class="cls-2" d="M187.62,121.36a9.24,9.24,0,0,0,.31,2.22,13.36,13.36,0,0,0,.88,2.42,13,13,0,0,0,1.42,2.32,11.07,11.07,0,0,0,2,2,9.31,9.31,0,0,0,2.45,1.37,8,8,0,0,0,2.94.52,8.06,8.06,0,0,0,2.08-.26,8.54,8.54,0,0,0,1.79-.7,11.84,11.84,0,0,0,1.6-1c.51-.4,1-.82,1.54-1.27l.8.77a21.86,21.86,0,0,1-1.89,2.18,15.56,15.56,0,0,1-2.78,2.22A16,16,0,0,1,192,136.5a15.15,15.15,0,0,1-5.43-1,13.42,13.42,0,0,1-4.69-3,14.78,14.78,0,0,1-3.28-5,18.53,18.53,0,0,1-1.23-7,18.12,18.12,0,0,1,.74-5.35,16.86,16.86,0,0,1,2-4.38,16.24,16.24,0,0,1,2.94-3.43,18.7,18.7,0,0,1,3.54-2.45,17.27,17.27,0,0,1,3.79-1.47,15.67,15.67,0,0,1,7.86,0,9.37,9.37,0,0,1,2.93,1.37,5.84,5.84,0,0,1,1.74,2,5.17,5.17,0,0,1,.58,2.39,4.49,4.49,0,0,1-.87,2.7,7.94,7.94,0,0,1-2.3,2.1Zm6.44-6.5a4.77,4.77,0,0,0,.69-.5,1.86,1.86,0,0,0,.43-.57,2.92,2.92,0,0,0,.24-.83,8.48,8.48,0,0,0,.08-1.24,9.83,9.83,0,0,0-.18-1.77,6.71,6.71,0,0,0-.59-1.84,4.49,4.49,0,0,0-1.06-1.44,2.16,2.16,0,0,0-1.53-.58,2.94,2.94,0,0,0-2,.69,5.32,5.32,0,0,0-1.34,1.78A10.93,10.93,0,0,0,188,111c-.2.92-.35,1.86-.46,2.8s-.17,1.84-.19,2.7,0,1.6,0,2.19Z"/><path class="cls-2" d="M219,133.23a4.42,4.42,0,0,1-.14,1,2.27,2.27,0,0,1-.68,1.09,4.22,4.22,0,0,1-1.53.88,8,8,0,0,1-2.71.37,7,7,0,0,1-2.65-.4,3.82,3.82,0,0,1-1.43-.94,2.44,2.44,0,0,1-.57-1.12,4.9,4.9,0,0,1-.12-.93V91.88a3,3,0,0,0-.43-1.62,1.57,1.57,0,0,0-1.45-.68,2.3,2.3,0,0,0-.95.17,4.32,4.32,0,0,0-.85.53l-.64-.77c.49-.4,1-.8,1.64-1.2a12.11,12.11,0,0,1,2-1,15.74,15.74,0,0,1,2.29-.74,11.22,11.22,0,0,1,2.56-.28,7.48,7.48,0,0,1,3.24.56,4.16,4.16,0,0,1,1.69,1.37,4.09,4.09,0,0,1,.66,1.73,14.51,14.51,0,0,1,.11,1.62Z"/><path class="cls-2" d="M236.34,105.45a7.6,7.6,0,0,0-2,.26,6.76,6.76,0,0,0-1.6.64,3.69,3.69,0,0,0-1.05.84,1.42,1.42,0,0,0-.39.88.71.71,0,0,0,.5.69l1.1.48A3.82,3.82,0,0,1,234,110a2.07,2.07,0,0,1,.49,1.52,2.77,2.77,0,0,1-.27,1.23,3.43,3.43,0,0,1-.73,1,3.68,3.68,0,0,1-1.09.67,3.61,3.61,0,0,1-1.3.24,3.75,3.75,0,0,1-2.9-1.22,4.65,4.65,0,0,1-1.1-3.23,5.48,5.48,0,0,1,1-3.34,8,8,0,0,1,2.68-2.29,13.48,13.48,0,0,1,3.73-1.33,20.19,20.19,0,0,1,4.16-.43,20.48,20.48,0,0,1,4.76.54,12,12,0,0,1,4,1.73,9,9,0,0,1,2.79,3,8.8,8.8,0,0,1,1,4.41v18.09c0,.19,0,.4,0,.64a1.88,1.88,0,0,0,.16.64,1.18,1.18,0,0,0,.38.48,1.21,1.21,0,0,0,.74.19,1.59,1.59,0,0,0,1.07-.43,8.12,8.12,0,0,0,.88-.88l.8.67c-.32.45-.7.94-1.15,1.47a9.14,9.14,0,0,1-1.63,1.51,9.3,9.3,0,0,1-2.24,1.18,8.32,8.32,0,0,1-2.92.48,5.73,5.73,0,0,1-3.58-1.2,5.8,5.8,0,0,1-2.05-3.7,13.32,13.32,0,0,1-2.13,2.31,11.3,11.3,0,0,1-2.25,1.5,10.31,10.31,0,0,1-2.32.84,11.07,11.07,0,0,1-2.36.25,9.33,9.33,0,0,1-3-.48,7.19,7.19,0,0,1-2.58-1.52,7.27,7.27,0,0,1-1.82-2.7,10.65,10.65,0,0,1-.69-4.07,8.92,8.92,0,0,1,1.15-4.77,10.2,10.2,0,0,1,3-3.12,20.72,20.72,0,0,1,4.26-2.16q2.39-.9,4.88-1.89a5.23,5.23,0,0,0,2.71-2.19,5.92,5.92,0,0,0,.84-3,5.16,5.16,0,0,0-1.39-3.79A5.06,5.06,0,0,0,236.34,105.45Zm5.09,14a1.49,1.49,0,0,0-.51-1.22,2.08,2.08,0,0,0-1.32-.41,4.63,4.63,0,0,0-2.12.51,5.16,5.16,0,0,0-1.78,1.5,7.8,7.8,0,0,0-1.22,2.45,11.5,11.5,0,0,0-.44,3.38,14.49,14.49,0,0,0,.27,3.07,6,6,0,0,0,.73,1.94,2.71,2.71,0,0,0,1.08,1,3,3,0,0,0,1.28.28,3,3,0,0,0,1.56-.43,4.65,4.65,0,0,0,1.28-1.1,5.51,5.51,0,0,0,.87-1.51,4.66,4.66,0,0,0,.32-1.66Z"/><path class="cls-2" d="M221,150.7a5.36,5.36,0,0,0,.56-.89,2,2,0,0,0,.24-.9c0-.4-.32-.69-1-.86a16.13,16.13,0,0,0-3.55-.26,7.78,7.78,0,0,0-2.66.39,6,6,0,0,0-1.74.94,5.37,5.37,0,0,0-1.12,1.23c-.29.45-.54.86-.76,1.23a7.47,7.47,0,0,1-.62.95.93.93,0,0,1-.78.38,1.36,1.36,0,0,1-.95-.35,2.8,2.8,0,0,1-.65-.88,5,5,0,0,1-.39-1.15,6.46,6.46,0,0,1-.13-1.2,2.23,2.23,0,0,1,.74-1.6,6.15,6.15,0,0,1,2.14-1.27,17.84,17.84,0,0,1,3.45-.83,32,32,0,0,1,4.65-.3,56,56,0,0,1,6.93.35,18.46,18.46,0,0,1,4.18.94,4.21,4.21,0,0,1,2,1.43A3.07,3.07,0,0,1,232,151a9.38,9.38,0,0,1-.57,1.2c-.23.38-.45.74-.68,1.07l-.49.72L216.9,174.36c-.06.11-.16.27-.3.49a1.43,1.43,0,0,0-.21.76.6.6,0,0,0,.18.44,1.3,1.3,0,0,0,.67.32,7,7,0,0,0,1.42.18c.62,0,1.43,0,2.44,0a10.21,10.21,0,0,0,3.18-.42,6.52,6.52,0,0,0,2.06-1.05,6.29,6.29,0,0,0,1.29-1.36c.31-.48.59-.94.83-1.36a6.5,6.5,0,0,1,.69-1.06,1.06,1.06,0,0,1,.88-.42,1.38,1.38,0,0,1,1,.4,3.62,3.62,0,0,1,.7,1,5.75,5.75,0,0,1,.43,1.31,6.23,6.23,0,0,1,.15,1.28,2.25,2.25,0,0,1-.77,1.62,6.34,6.34,0,0,1-2.34,1.31,19,19,0,0,1-4,.88,43.11,43.11,0,0,1-5.72.32,52.08,52.08,0,0,1-6.05-.29,18.84,18.84,0,0,1-4.06-.84,5,5,0,0,1-2.27-1.43,3.09,3.09,0,0,1-.71-2,4.34,4.34,0,0,1,.43-1.84,14.47,14.47,0,0,1,1.27-2.1Z"/><path class="cls-2" d="M245.74,163.86a8.77,8.77,0,0,0,.31,2.22,12.65,12.65,0,0,0,.88,2.42,12.45,12.45,0,0,0,1.42,2.32,11,11,0,0,0,2,2,9.22,9.22,0,0,0,2.45,1.38,8.27,8.27,0,0,0,2.95.51,8.12,8.12,0,0,0,2.08-.26,8.23,8.23,0,0,0,1.79-.7,12.5,12.5,0,0,0,1.6-1c.51-.4,1-.82,1.53-1.27l.8.77a23,23,0,0,1-1.88,2.18,15.3,15.3,0,0,1-2.79,2.22,15.93,15.93,0,0,1-3.81,1.73,16.38,16.38,0,0,1-5,.69,15.13,15.13,0,0,1-5.42-1,13.45,13.45,0,0,1-4.69-3,14.78,14.78,0,0,1-3.28-5,20.18,20.18,0,0,1-.5-12.38,17.11,17.11,0,0,1,2-4.39,16.54,16.54,0,0,1,3-3.43,18.43,18.43,0,0,1,3.53-2.44,17.9,17.9,0,0,1,3.8-1.48,15.63,15.63,0,0,1,7.85,0,9.06,9.06,0,0,1,2.93,1.38,5.7,5.7,0,0,1,1.75,2,5.22,5.22,0,0,1,.57,2.38,4.58,4.58,0,0,1-.86,2.71,7.94,7.94,0,0,1-2.31,2.09Zm6.43-6.5a4.78,4.78,0,0,0,.69-.49,1.76,1.76,0,0,0,.43-.58,2.82,2.82,0,0,0,.24-.83,7,7,0,0,0,.09-1.23,9.84,9.84,0,0,0-.18-1.78,7.47,7.47,0,0,0-.59-1.84,4.49,4.49,0,0,0-1.06-1.44,2.2,2.2,0,0,0-1.54-.58,2.93,2.93,0,0,0-2,.69,5.21,5.21,0,0,0-1.35,1.78,10.93,10.93,0,0,0-.83,2.48c-.2.93-.36,1.86-.47,2.8s-.17,1.84-.19,2.7,0,1.6,0,2.2Z"/><path class="cls-2" d="M277.08,175.73a4.11,4.11,0,0,1-.15,1,2.26,2.26,0,0,1-.67,1.08,4.14,4.14,0,0,1-1.54.88,7.93,7.93,0,0,1-2.7.37,7.05,7.05,0,0,1-2.66-.4,3.66,3.66,0,0,1-1.42-.94,2.52,2.52,0,0,1-.58-1.12,5.55,5.55,0,0,1-.11-.93V134.38a3,3,0,0,0-.43-1.62,1.61,1.61,0,0,0-1.46-.68,2.43,2.43,0,0,0-.94.17,4.32,4.32,0,0,0-.85.53l-.64-.77c.49-.4,1-.8,1.63-1.2a12.22,12.22,0,0,1,2-1,14.27,14.27,0,0,1,2.29-.73,10.63,10.63,0,0,1,2.56-.29,7.62,7.62,0,0,1,3.23.56,4.2,4.2,0,0,1,1.7,1.37,3.94,3.94,0,0,1,.65,1.73,12.62,12.62,0,0,1,.12,1.62Z"/><path class="cls-2" d="M295,175.73a4.58,4.58,0,0,1-.14,1,2.29,2.29,0,0,1-.68,1.08,4.09,4.09,0,0,1-1.53.88,8,8,0,0,1-2.71.37,7,7,0,0,1-2.65-.4,3.7,3.7,0,0,1-1.43-.94,2.4,2.4,0,0,1-.57-1.12,4.81,4.81,0,0,1-.12-.93V134.38a3,3,0,0,0-.43-1.62,1.59,1.59,0,0,0-1.45-.68,2.48,2.48,0,0,0-.95.17,4.32,4.32,0,0,0-.85.53l-.64-.77c.49-.4,1-.8,1.64-1.2a12.11,12.11,0,0,1,2-1,14.59,14.59,0,0,1,2.29-.73,10.69,10.69,0,0,1,2.56-.29,7.64,7.64,0,0,1,3.24.56,4.16,4.16,0,0,1,1.69,1.37,4,4,0,0,1,.66,1.73A14.51,14.51,0,0,1,295,134Z"/><path class="cls-3" d="M362.1,33.06a90.32,90.32,0,0,1-28.19,23.77l-2.31,1.22S343,45.4,340.49,46.7c-1.52.8-15.86,10.34-28,17-1.84,1,8.75-9.39,7.06-8.43-5.33,3-21.94,14.59-23.84,16.29-6.55,5.84-10.79,8.73-15.26,17.22a34.18,34.18,0,0,0-3.64,6.12c-2.43,4.74-6.8,11.35-6.11,22.39,0,.17,0,.31.09,0a15.91,15.91,0,0,1,2.4-6.63c3.45-5.19,10.46-19.37,39.8-37.81C331.43,61.19,357.62,57.93,362.1,33.06Z"/><path class="cls-4" d="M273.23,111.12c3.43-5.2,12.57-20.8,39.8-37.8,18.51-11.56,44.67-14.88,49.14-39.74,0,0,2.72,17.88-11.51,26s-23.42,11.29-23.42,11.29,11.44-3.18,14.24-4.56-8.19,13.48-16.91,16.43a134,134,0,0,1-17.11,4.45s7.09-.18,9.75-1.32-13.32,11.5-22.35,12S273.23,111.12,273.23,111.12Z"/><path class="cls-5" d="M224.45,0a90.28,90.28,0,0,0,14.32,34c5.58,7.93,1.5,2.14,1.5,2.14S235.89,19.68,237.5,22c1,1.4,9.44,16.41,17.28,27.86,1.18,1.72-3.54-12.35-2.46-10.72,3.38,5.11,12.91,23,13.84,25.34,3.18,8.18,5.71,12.25,5.84,21.85a29.3,29.3,0,0,1,.92,8.2c0,5.37.44,12.61-5.36,22.23,0,.06-.12.16-.05,0a16,16,0,0,0,1-7.22c-.71-6.19-.52-22-18.29-51.76C239,39,217.14,24.18,224.45,0Z"/><path class="cls-6" d="M268.17,109.91c-.7-6.19-1.76-24.25-18.29-51.76-11.24-18.71-33-33.54-25.73-57.73,0,0-10.55,14.7-1.56,28.41s15.74,20.69,15.74,20.69-8.75-8-10.62-10.53,1.17,15.73,7.6,22.32a134.52,134.52,0,0,0,13.22,11.74s-6.23-3.39-8.09-5.61,6.65,16.3,14.49,20.8S268.17,109.91,268.17,109.91Z"/><path class="cls-7" d="M269.8,84.57a7,7,0,1,1,13.64,3.28c-.57,2.36-4.76,8.3-7.84,12.47-1.84,2.5-3.11,4.43-3.43,4.36s-.56-2.48-1.06-5.44C270.25,94.12,269.22,87,269.8,84.57Z"/><path class="cls-8" d="M271.89,105.88l3.71-5.56a13.61,13.61,0,0,1-2.36-.07,13.7,13.7,0,0,1-2.13-1Z"/><path class="cls-9" d="M134.22,91.33h-.08A.26.26,0,0,1,134,91a102.09,102.09,0,0,1,79.39-69,.24.24,0,0,1,.29.2.26.26,0,0,1-.2.29,101.6,101.6,0,0,0-79,68.66A.27.27,0,0,1,134.22,91.33Z"/><path class="cls-10" d="M231,224.46a102.34,102.34,0,0,1-88.47-51.21A.25.25,0,0,1,143,173,101.52,101.52,0,0,0,327,89.48l-.55-1.63a.25.25,0,0,1,.15-.32.26.26,0,0,1,.32.16l.55,1.63A102.06,102.06,0,0,1,231,224.46Z"/><path class="cls-11" d="M307.22,55.31a.23.23,0,0,1-.18-.09,101.21,101.21,0,0,0-64.83-33.63.25.25,0,0,1-.22-.27.24.24,0,0,1,.28-.22,101.66,101.66,0,0,1,65.14,33.79.26.26,0,0,1,0,.36A.27.27,0,0,1,307.22,55.31Z"/></g></g></svg>